<?xml version="1.0" standalone="no"?>
<!DOCTYPE svg PUBLIC "-//W3C//DTD SVG 1.1//EN" "http://www.w3.org/Graphics/SVG/1.1/DTD/svg11.dtd" >
<svg xmlns="http://www.w3.org/2000/svg" xmlns:xlink="http://www.w3.org/1999/xlink" version="1.1">
<metadata>
Created by FontForge 20190801 at Thu Jan 20 10:54:27 2005
 By www-data
Digitised data (c) Monotype Imaging. All rights reserved.
</metadata>
<defs>
<font id="SackersGothicStdHeavy" horiz-adv-x="389" >
  <font-face 
    font-family="SackersGothicStdHeavy"
    font-weight="850"
    font-stretch="normal"
    units-per-em="1000"
    panose-1="2 11 8 4 2 2 2 6 2 4"
    ascent="760"
    descent="-240"
    x-height="517"
    cap-height="746"
    bbox="-208 -250 1734 1041"
    underline-thickness="50"
    underline-position="-100"
    unicode-range="U+0020-FB06"
  />
<missing-glyph horiz-adv-x="500" 
d="M12 0v665h475v-665h-475zM88 618l162 -243l161 243h-323zM60 575v-484l40 61l80 120l41 61zM440 575l-162 -242l162 -243v485zM411 48l-161 242l-162 -242h323z" />
    <glyph glyph-name="fi" unicode="fi" horiz-adv-x="979" 
d="M836 0h-102v518h102v-518zM612 414h-356v-95h188v-103h-188v-216h-102v518h458v-104z" />
    <glyph glyph-name="fl" unicode="fl" horiz-adv-x="1174" 
d="M1149 0h-402v518h107v-412h295v-106zM612 414h-356v-95h188v-103h-188v-216h-102v518h458v-104z" />
    <glyph glyph-name=".notdef" horiz-adv-x="500" 
d="M12 0v665h475v-665h-475zM88 618l162 -243l161 243h-323zM60 575v-484l40 61l80 120l41 61zM440 575l-162 -242l162 -243v485zM411 48l-161 242l-162 -242h323z" />
    <glyph glyph-name=".null" horiz-adv-x="0" 
 />
    <glyph glyph-name="nonmarkingreturn" horiz-adv-x="333" 
 />
    <glyph glyph-name="space" unicode=" " horiz-adv-x="370" 
 />
    <glyph glyph-name="exclam" unicode="!" horiz-adv-x="352" 
d="M234 748l-21 -552h-71l-19 552h111zM251 55q0 -30 -21 -51.5t-51 -21.5t-51 21.5t-21 51.5t21 51.5t51 21.5t51 -21.5t21 -51.5z" />
    <glyph glyph-name="quotedbl" unicode="&#x22;" horiz-adv-x="462" 
d="M379 757l-24 -253h-73l-24 253h121zM204 757l-24 -253h-73l-24 253h121z" />
    <glyph glyph-name="numbersign" unicode="#" horiz-adv-x="685" 
d="M713 480l-30 -79h-144l-47 -112h143l-30 -77h-143l-85 -205h-88l85 205h-152l-86 -205h-87l84 205h-142l30 77h142l48 112h-141l30 79h142l72 172h87l-71 -172h153l71 172h88l-71 -172h142zM452 401h-153l-47 -112h152z" />
    <glyph glyph-name="dollar" unicode="$" horiz-adv-x="889" 
d="M757 188q0 -64 -42.5 -112.5t-100.5 -71.5t-118 -24v-71h-100v69q-167 6 -295 135l68 75q108 -95 227 -103v207h-51q-91 0 -146.5 42t-55.5 130q0 90 77 142.5t176 64.5v75h100v-75q111 -12 214 -90l-56 -82q-81 51 -158 66v-172q51 0 96 -11.5t83 -35t60 -64t22 -94.5z
M396 393v175q-34 -4 -65 -14.5t-58 -34.5t-27 -56q0 -41 38 -55.5t112 -14.5zM643 198q0 28 -14 47t-38 28.5t-46.5 13t-48.5 3.5v-204q147 11 147 112z" />
    <glyph glyph-name="percent" unicode="%" horiz-adv-x="1241" 
d="M1174 190q0 -99 -74 -154t-177 -55q-97 0 -168.5 56.5t-71.5 150.5q0 101 71 156t175 55q99 0 172 -56.5t73 -152.5zM952 718l-552 -758h-96l551 758h97zM559 459q0 -99 -74.5 -154t-177.5 -55q-97 0 -168.5 56.5t-71.5 150.5q0 101 71 156t175 55q99 0 172.5 -56.5
t73.5 -152.5zM1073 192q0 52 -42.5 84.5t-98.5 32.5q-58 0 -102.5 -33t-44.5 -87q0 -52 44 -85.5t101 -33.5t100 34t43 88zM457 461q0 52 -42.5 84.5t-98.5 32.5q-58 0 -102.5 -33t-44.5 -87q0 -52 44 -85.5t101 -33.5t99.5 34t42.5 88h1z" />
    <glyph glyph-name="ampersand" unicode="&#x26;" horiz-adv-x="870" 
d="M803 0h-147l-47 51q-66 -38 -111.5 -52t-115.5 -14q-67 0 -130.5 22.5t-110 73t-46.5 119.5q0 81 60.5 132.5t135.5 60.5q-55 55 -55 132q0 70 53.5 111.5t149.5 41.5q60 0 118.5 -17.5t93.5 -39.5l-48 -95q-90 53 -161 53q-42 0 -65 -15t-23 -38q0 -35 42 -80l224 -244
q30 32 87 114l90 -59q-40 -69 -103 -137zM532 136l-164 174q-3 -1 -22.5 -6t-27.5 -7.5t-26 -9t-27 -11.5t-22.5 -14t-20 -18t-11.5 -21.5t-5 -26.5q0 -34 32 -58t69 -32.5t70 -8.5q47 0 78.5 8t76.5 31z" />
    <glyph glyph-name="quotesingle" unicode="'" horiz-adv-x="333" 
d="M232 757l-24 -253h-73l-24 253h121z" />
    <glyph glyph-name="parenleft" unicode="(" horiz-adv-x="426" 
d="M372 715q-68 -46 -127.5 -143.5t-59.5 -200.5q0 -97 58 -196t124 -149l-59 -51q-103 80 -166.5 184.5t-63.5 214.5q0 114 68.5 222t179.5 174z" />
    <glyph glyph-name="parenright" unicode=")" horiz-adv-x="426" 
d="M372 371q0 -115 -68 -222.5t-179 -173.5l-47 55q69 46 128 143.5t59 200.5q0 97 -58 196t-123 148l59 52q103 -80 166 -184.5t63 -214.5z" />
    <glyph glyph-name="asterisk" unicode="*" horiz-adv-x="500" 
d="M422 627l-102 -58l101 -58l-33 -59l-102 57v-116h-68v116l-105 -59l-35 60l103 59l-101 58l34 59l104 -57v118h68v-118l101 58z" />
    <glyph glyph-name="plus" unicode="+" horiz-adv-x="889" 
d="M682 187h-191v-188h-93v188h-191v93h191v188h93v-188h191v-93z" />
    <glyph glyph-name="comma" unicode="," 
d="M301 2q0 -90 -93 -168q-23 -15 -30 -15q-24 0 -24 26q0 17 15 28q23 14 40.5 38t17.5 48q0 26 -20 26q-29 0 -46 19t-17 50q0 25 22.5 43t47.5 18q41 0 64 -34t23 -79z" />
    <glyph glyph-name="hyphen" unicode="-" horiz-adv-x="610" 
d="M480 200h-350v119h350v-119z" />
    <glyph glyph-name="period" unicode="." horiz-adv-x="370" 
d="M255 55q0 -29 -20.5 -50.5t-49.5 -21.5t-49.5 21.5t-20.5 50.5t20.5 50.5t49.5 21.5t49.5 -21.5t20.5 -50.5z" />
    <glyph glyph-name="slash" unicode="/" horiz-adv-x="630" 
d="M579 745l-418 -774h-122l416 774h124z" />
    <glyph glyph-name="zero" unicode="0" horiz-adv-x="889" 
d="M831 324q0 -89 -46 -169t-124 -125q-84 -49 -220 -49q-119 0 -195 38q-84 42 -135.5 125t-51.5 177q0 56 19 113q38 117 138 175.5t230 58.5t219 -51q76 -44 121 -124.5t45 -168.5zM722 328q0 111 -80.5 173t-194.5 62q-115 0 -197 -65t-82 -177q0 -109 83 -173t195 -64
q115 0 195.5 65.5t80.5 178.5z" />
    <glyph glyph-name="one" unicode="1" horiz-adv-x="611" 
d="M359 0h-106v653h106v-653z" />
    <glyph glyph-name="two" unicode="2" horiz-adv-x="889" 
d="M744 0h-599q-3 20 -3 40q0 128 67 224t188 114q23 4 75 9.5t79 10.5q35 6 59.5 25t24.5 52q0 32 -34.5 52.5t-70 26.5t-68.5 6q-74 0 -127 -15t-126 -53l-46 95q87 48 146 64t154 16q46 0 92 -10.5t89.5 -31t71 -58.5t27.5 -87q0 -80 -60.5 -131.5t-144.5 -63.5
q-19 -3 -57 -7t-61.5 -8t-42.5 -10q-44 -13 -71.5 -47.5t-44.5 -104.5h483v-108z" />
    <glyph glyph-name="three" unicode="3" horiz-adv-x="889" 
d="M792 180q0 -58 -38 -99t-98.5 -60.5t-115.5 -27.5t-110 -8q-86 0 -169 21q-77 20 -166 79l61 87q71 -46 135 -62.5t155 -16.5q27 0 61.5 4t77 13t70.5 28.5t28 47.5q0 26 -27.5 47.5t-56.5 32t-58 16.5q-43 8 -98 8q-26 0 -39 -1v104q105 0 163 20q72 26 72 70
q0 30 -39.5 48.5t-77.5 23t-71 4.5q-61 0 -110.5 -13.5t-116.5 -43.5l-50 90q85 45 142 60t149 15q45 0 91.5 -9.5t91.5 -29t73.5 -56.5t28.5 -86q0 -73 -78 -138q120 -64 120 -168z" />
    <glyph glyph-name="four" unicode="4" horiz-adv-x="889" 
d="M818 160h-151v-160h-109v160h-449l-48 104l472 390h134v-387h151v-107zM558 267v268l-322 -268h322z" />
    <glyph glyph-name="five" unicode="5" horiz-adv-x="889" 
d="M788 207q0 -76 -59.5 -129.5t-140.5 -75.5q-64 -18 -142 -18q-99 0 -174 21t-153 65l49 91q81 -36 142 -53t137 -17q51 0 102 12q48 12 88.5 38.5t40.5 66.5q0 30 -21 52.5t-54.5 34t-69 17t-71.5 5.5q-108 0 -255 -65l-70 64v338h599v-101h-491v-169q114 40 220 40
q54 0 107.5 -11.5t103.5 -35t81 -68t31 -102.5z" />
    <glyph glyph-name="six" unicode="6" horiz-adv-x="889" 
d="M808 203q0 -77 -64.5 -129.5t-149.5 -72.5q-64 -15 -129 -15q-76 0 -145.5 22t-124.5 63t-87.5 106t-32.5 144q0 105 60 186t151 121t194 40q81 0 146.5 -23.5t148.5 -73.5l-52 -92q-71 43 -121.5 61t-121.5 18q-114 0 -198 -58t-96 -167q88 44 149 59t157 15
q51 0 102.5 -10.5t101.5 -33t81 -64t31 -96.5zM700 203q0 35 -42.5 58t-87.5 32q-32 7 -72 7q-131 0 -288 -75q19 -47 64.5 -77t94 -41t101.5 -11q42 0 92 10q29 6 57 16.5t54.5 32.5t26.5 48z" />
    <glyph glyph-name="seven" unicode="7" horiz-adv-x="889" 
d="M741 583l-381 -583h-130l357 545h-448v108h545z" />
    <glyph glyph-name="eight" unicode="8" horiz-adv-x="889" 
d="M798 182q0 -48 -24.5 -85t-61 -58t-86 -34.5t-91.5 -17.5t-86 -4t-87 4t-94 17t-89 34t-63.5 58t-25.5 85q0 37 19 73q27 54 110 95q-82 61 -82 145q0 44 21.5 77t52.5 51t75 29.5t80.5 14.5t77.5 3q53 0 99 -6.5t95.5 -24t79 -55.5t29.5 -93q0 -85 -82 -141
q67 -29 92 -60q41 -49 41 -107zM640 485q0 75 -205 75q-188 0 -188 -76q0 -26 23.5 -44t59 -26t65 -11.5t54.5 -3.5q23 0 52 4t62 12.5t55 27t22 42.5zM687 187q0 27 -29.5 49.5t-60.5 33t-60 15.5q-41 8 -95 8q-65 0 -133 -17.5t-95 -57.5q-14 -20 -14 -35q0 -28 28.5 -48
t72.5 -28.5t78 -12t63 -3.5t64.5 3.5t79 13t72.5 30t29 49.5z" />
    <glyph glyph-name="nine" unicode="9" horiz-adv-x="889" 
d="M815 334q0 -104 -60 -185.5t-151 -123t-193 -41.5q-66 0 -136 19q-81 22 -163 79l53 94q126 -81 242 -81q111 0 199.5 60t97.5 165q-91 -44 -151.5 -59t-155.5 -15q-64 0 -120 13q-81 20 -138 68t-57 123t58.5 126.5t138.5 73.5q64 18 141 18q103 0 191 -36.5t146 -114.5
t58 -183zM680 428q-69 131 -261 131q-49 0 -92 -10q-48 -11 -93.5 -36.5t-45.5 -60.5q0 -32 37.5 -54.5t79.5 -33.5q43 -10 90 -10q129 0 285 74z" />
    <glyph glyph-name="colon" unicode=":" horiz-adv-x="370" 
d="M254 430q0 -29 -20.5 -50t-48.5 -21t-48.5 21t-20.5 49q0 29 20.5 49.5t48.5 20.5q29 0 49 -20.5t20 -48.5zM254 53q0 -29 -20.5 -49.5t-48.5 -20.5q-29 0 -49 20.5t-20 48.5q0 29 20.5 50t48.5 21t48.5 -21t20.5 -49z" />
    <glyph glyph-name="semicolon" unicode=";" 
d="M255 428q0 -28 -20.5 -49t-49.5 -21t-49 20t-20 48q0 29 20 51t49 22q28 0 49 -21t21 -50zM271 2q0 -90 -93 -168q-23 -15 -30 -15q-24 0 -24 26q0 17 15 28q23 14 40.5 38t17.5 48q0 26 -20 26q-29 0 -46 19t-17 50q0 25 20 43t45 18q42 0 67 -34.5t25 -78.5z" />
    <glyph glyph-name="less" unicode="&#x3c;" horiz-adv-x="889" 
d="M642 14l-395 173v87l395 173v-99l-281 -117l281 -118v-99z" />
    <glyph glyph-name="equal" unicode="=" horiz-adv-x="889" 
d="M682 277h-475v93h475v-93zM682 97h-475v93h475v-93z" />
    <glyph glyph-name="greater" unicode="&#x3e;" horiz-adv-x="889" 
d="M642 187l-395 -173v99l281 118l-281 117v99l395 -173v-87z" />
    <glyph glyph-name="question" unicode="?" horiz-adv-x="593" 
d="M515 571q0 -102 -109 -185l-101 -76q-24 -19 -24 -57v-65h-113v74q0 45 8.5 67.5t32.5 40.5l106 82q74 57 74 118q0 95 -171 95q-86 0 -160 -21v103q72 20 197 20q260 0 260 -196zM296 55q0 -30 -21 -51.5t-51 -21.5t-51 21.5t-21 51.5t21 51.5t51 21.5t50.5 -21.5
t20.5 -51.5h1z" />
    <glyph glyph-name="at" unicode="@" horiz-adv-x="1072" 
d="M998 368q0 -97 -62.5 -164.5t-136.5 -67.5q-98 0 -141 47q-46 -46 -145 -46q-41 0 -77.5 10t-65 39.5t-28.5 74.5q0 39 16.5 64t49.5 37t69 16.5t88 4.5h63q0 13 -6 26q-13 31 -80 31q-83 0 -88 -34h-93q13 62 62 86t129 24q90 0 132 -36.5t42 -110.5v-84q0 -68 72 -68
q44 0 75.5 44t31.5 108q0 114 -112 188.5t-264 74.5q-92 0 -172 -36t-130.5 -106.5t-50.5 -159.5q0 -140 106.5 -225t255.5 -85q107 0 165 42l59 -75q-84 -53 -223 -53q-87 0 -169 26.5t-146.5 74t-103.5 122t-39 163.5q0 127 60.5 218.5t161 135t229.5 43.5
q96 0 179.5 -21.5t148 -63.5t101.5 -110t37 -154zM626 303h-54h-40q-27 0 -40 -1q-30 -2 -42.5 -11.5t-12.5 -31.5q0 -41 77 -41q111 0 112 85z" />
    <glyph glyph-name="A" unicode="A" horiz-adv-x="833" 
d="M810 0h-122l-107 243h-335l-111 -243h-118l339 745h120zM532 353l-118 260l-118 -260h236z" />
    <glyph glyph-name="B" unicode="B" horiz-adv-x="907" 
d="M833 204q0 -87 -64 -145q-42 -39 -82 -49t-110 -10h-428v746h428q97 0 158.5 -54t61.5 -150q0 -47 -16 -80.5t-51 -66.5q103 -81 103 -191zM688 541q0 97 -111 97h-320v-200h320q51 0 81 26.5t30 76.5zM725 218q0 109 -148 109h-320v-217h331q73 0 106 33q31 31 31 75z
" />
    <glyph glyph-name="C" unicode="C" horiz-adv-x="926" 
d="M864 134q-129 -152 -350 -152q-177 0 -298.5 109t-121.5 284q0 168 114.5 278.5t283.5 110.5q202 0 360 -153l-81 -69q-135 113 -273 113q-125 0 -211 -79t-86 -203q0 -130 93.5 -205.5t226.5 -75.5q85 0 146.5 28.5t124.5 91.5z" />
    <glyph glyph-name="D" unicode="D" horiz-adv-x="926" 
d="M863 376q0 -75 -29.5 -148.5t-81.5 -128.5q-50 -54 -106 -76.5t-132 -22.5h-363v746h360q150 0 251 -108.5t101 -261.5zM753 368q0 113 -65 191t-176 78h-254v-528h256q106 0 172.5 75.5t66.5 183.5z" />
    <glyph glyph-name="E" unicode="E" horiz-adv-x="852" 
d="M784 0h-633v746h614v-110h-505v-195h254v-108h-254v-224h524v-109z" />
    <glyph glyph-name="F" unicode="F" horiz-adv-x="833" 
d="M764 638h-503v-207h306v-111h-306v-320h-108v746h611v-108z" />
    <glyph glyph-name="G" unicode="G" horiz-adv-x="907" 
d="M842 209q0 -78 -60 -132.5t-143 -77.5q-61 -17 -133 -17q-171 0 -290 111t-119 281q0 169 120 279t291 110q100 0 173.5 -33t143.5 -103l-75 -77q-51 56 -106 80.5t-130 24.5q-130 0 -220.5 -77t-90.5 -205t89.5 -205t219.5 -77q46 0 86 10q51 13 94 42.5t43 72.5v84
h-237v108h344v-199z" />
    <glyph glyph-name="H" unicode="H" horiz-adv-x="963" 
d="M811 0h-109v334h-439v-334h-108v746h108v-302h439v302h109v-746z" />
    <glyph glyph-name="I" unicode="I" 
d="M250 0h-107v746h107v-746z" />
    <glyph glyph-name="J" unicode="J" horiz-adv-x="815" 
d="M659 279q0 -58 -8 -93t-37 -76q-87 -127 -275 -127q-143 0 -226 70q-50 42 -93 132l98 49q38 -81 84 -111.5t134 -30.5q135 0 191 83q24 36 24 119v452h108v-467z" />
    <glyph glyph-name="K" unicode="K" horiz-adv-x="833" 
d="M811 0h-126l-231 406l-195 -207v-199h-108v746h108v-390l368 390h151l-247 -259z" />
    <glyph glyph-name="L" unicode="L" horiz-adv-x="741" 
d="M719 0h-563v746h109v-637h454v-109z" />
    <glyph glyph-name="M" unicode="M" horiz-adv-x="1037" 
d="M888 0h-109v522l-265 -461l-258 461v-522h-106v746h107l257 -465l266 465h108v-746z" />
    <glyph glyph-name="N" unicode="N" horiz-adv-x="963" 
d="M816 0h-108l-450 568v-568h-107v746h106l449 -570v570h110v-746z" />
    <glyph glyph-name="O" unicode="O" horiz-adv-x="1000" 
d="M901 372q0 -163 -119 -276.5t-283 -113.5q-169 0 -285 116.5t-116 285.5q0 162 119.5 273t282.5 111q167 0 284 -115t117 -281zM793 378q0 121 -86 200.5t-208 79.5q-126 0 -210 -81t-84 -206q0 -118 87.5 -198.5t207.5 -80.5q121 0 207 83t86 203z" />
    <glyph glyph-name="P" unicode="P" horiz-adv-x="870" 
d="M804 533q0 -99 -59.5 -157.5t-158.5 -58.5h-324v-317h-109v746h433q100 0 159 -56.5t59 -156.5zM696 533q0 54 -27.5 79t-82.5 25h-324v-210h324q110 0 110 106z" />
    <glyph glyph-name="Q" unicode="Q" horiz-adv-x="1000" 
d="M904 372q0 -180 -153 -305l93 -95l-92 -64l-99 102q-79 -27 -152 -27q-166 0 -283 113t-117 278q0 164 119 279t284 115q168 0 284 -114.5t116 -281.5zM795 378q0 121 -85.5 200.5t-207.5 79.5q-123 0 -209 -80t-86 -202q0 -124 88 -205t213 -81q30 0 60 9l-39 40l95 58
l50 -50q121 91 121 231z" />
    <glyph glyph-name="R" unicode="R" horiz-adv-x="889" 
d="M824 526q0 -84 -45 -138.5t-127 -74.5l155 -313h-123l-150 309h-278v-309h-109v746h442q105 0 170 -58t65 -162zM716 532q0 106 -127 106h-333v-220h333q58 0 92.5 28.5t34.5 85.5z" />
    <glyph glyph-name="S" unicode="S" horiz-adv-x="833" 
d="M772 218q0 -64 -34 -112.5t-89 -73.5t-112.5 -37t-117.5 -12q-115 0 -204.5 36t-168.5 117l76 73q70 -65 141 -90.5t171 -25.5q35 0 71.5 6t74.5 20t61.5 42t23.5 66q0 53 -50 85q-28 18 -62.5 22.5t-123.5 6.5l-112 2q-94 2 -158 51t-64 140q0 77 53.5 132t132.5 81
q61 19 129 19q175 0 310 -102l-61 -87q-68 42 -117.5 60t-117.5 18q-32 0 -66 -5.5t-70.5 -18t-59.5 -37.5t-23 -59q0 -86 126 -86h111q52 0 81 -2t69 -12t75 -31q50 -30 77.5 -78.5t27.5 -107.5z" />
    <glyph glyph-name="T" unicode="T" horiz-adv-x="759" 
d="M695 637h-263v-637h-106v637h-266v109h635v-109z" />
    <glyph glyph-name="U" unicode="U" horiz-adv-x="963" 
d="M810 283q0 -65 -10 -106t-43 -84q-82 -108 -283 -108q-86 0 -162 30t-119 93q-26 38 -34 77.5t-8 97.5v463h108v-463q0 -47 7.5 -77t34.5 -57q55 -55 190 -55q108 0 160 41.5t52 147.5v463h107v-463z" />
    <glyph glyph-name="V" unicode="V" horiz-adv-x="833" 
d="M810 746l-333 -746h-129l-328 746h118l275 -624l277 624h120z" />
    <glyph glyph-name="W" unicode="W" horiz-adv-x="1019" 
d="M994 746l-223 -746h-112l-152 528l-147 -528h-118l-223 746h112l168 -553l153 553h106l157 -553l165 553h114z" />
    <glyph glyph-name="X" unicode="X" horiz-adv-x="796" 
d="M768 0h-138l-229 314l-237 -314h-139l306 405l-246 341h132l184 -249l187 249h135l-253 -341z" />
    <glyph glyph-name="Y" unicode="Y" horiz-adv-x="759" 
d="M743 746l-308 -423v-323h-108v323l-303 423h131l228 -316l225 316h135z" />
    <glyph glyph-name="Z" unicode="Z" horiz-adv-x="704" 
d="M678 0h-621l-35 75l476 561h-434v110h569l39 -74l-478 -561h484v-111z" />
    <glyph glyph-name="bracketleft" unicode="[" horiz-adv-x="426" 
d="M317 0h-178v748h178v-80h-80v-590h80v-78z" />
    <glyph glyph-name="backslash" unicode="\" horiz-adv-x="630" 
d="M579 -29h-122l-418 774h124z" />
    <glyph glyph-name="bracketright" unicode="]" horiz-adv-x="426" 
d="M297 0h-178v78h80v590h-80v80h178v-748z" />
    <glyph glyph-name="asciicircum" unicode="^" horiz-adv-x="889" 
d="M676 352h-106l-125 225l-126 -225h-106l187 316h89z" />
    <glyph glyph-name="underscore" unicode="_" horiz-adv-x="500" 
d="M500 -125h-500v49h500v-49z" />
    <glyph glyph-name="grave" unicode="`" 
d="M293 573h-92l-105 122h117z" />
    <glyph glyph-name="a" unicode="a" horiz-adv-x="685" 
d="M658 0h-118l-52 109h-303l-52 -109h-118l251 518h138zM436 212l-100 205l-100 -205h200z" />
    <glyph glyph-name="b" unicode="b" horiz-adv-x="741" 
d="M643 162q0 -79 -51.5 -120.5t-132.5 -41.5h-338v518h338q40 0 66.5 -6.5t49.5 -29.5q42 -41 42 -104q0 -32 -7 -51t-28 -44q32 -26 46.5 -53.5t14.5 -67.5zM511 371q0 25 -13 34t-39 9h-235v-89h235q29 0 40.5 9t11.5 37zM540 164q0 58 -81 58h-235v-118h235q81 0 81 60z
" />
    <glyph glyph-name="c" unicode="c" horiz-adv-x="741" 
d="M679 64q-76 -48 -128 -64.5t-136 -16.5q-131 0 -225 71.5t-94 198.5q0 126 90.5 204t218.5 78q79 0 136 -23.5t129 -76.5l-61 -91q-98 85 -206 85q-79 0 -141 -48t-62 -124q0 -78 63.5 -124t144.5 -46q69 0 114.5 15.5t109.5 57.5z" />
    <glyph glyph-name="d" unicode="d" horiz-adv-x="759" 
d="M694 263q0 -120 -71.5 -191.5t-190.5 -71.5h-281v518h281q120 0 191 -66.5t71 -188.5zM589 261q0 75 -41 114t-116 39h-173v-310h173q74 0 115.5 41.5t41.5 115.5z" />
    <glyph glyph-name="e" unicode="e" horiz-adv-x="685" 
d="M624 0h-470v518h458v-104h-356v-95h188v-103h-188v-112h368v-104z" />
    <glyph glyph-name="f" unicode="f" horiz-adv-x="667" 
d="M612 414h-356v-95h188v-103h-188v-216h-102v518h458v-104z" />
    <glyph glyph-name="g" unicode="g" horiz-adv-x="722" 
d="M634 77q-62 -50 -119 -72t-133 -22q-130 0 -222 74.5t-92 201.5q0 126 91.5 201t220.5 75q137 0 244 -66l-61 -104q-94 65 -188 65q-82 0 -142 -45t-60 -125t57.5 -125.5t139.5 -45.5q47 0 80 10.5t78 36.5v62h-127v97h233v-218z" />
    <glyph glyph-name="h" unicode="h" horiz-adv-x="796" 
d="M641 0h-102v217h-282v-217h-102v518h102v-196h282v196h102v-518z" />
    <glyph glyph-name="i" unicode="i" 
d="M256 0h-102v518h102v-518z" />
    <glyph glyph-name="j" unicode="j" horiz-adv-x="648" 
d="M493 194q0 -101 -68 -156t-171 -55q-80 0 -135 33.5t-95 104.5l88 60q28 -48 62 -70.5t88 -22.5t91.5 27t37.5 79v324h102v-324z" />
    <glyph glyph-name="k" unicode="k" horiz-adv-x="667" 
d="M643 0h-125l-162 256l-99 -96v-160h-103v518h103v-214l217 214h140l-182 -184z" />
    <glyph glyph-name="l" unicode="l" horiz-adv-x="574" 
d="M549 0h-402v518h107v-412h295v-106z" />
    <glyph glyph-name="m" unicode="m" horiz-adv-x="870" 
d="M721 0h-103v330l-181 -260l-183 260v-330h-103v518h104l182 -260l181 260h103v-518z" />
    <glyph glyph-name="n" unicode="n" horiz-adv-x="796" 
d="M646 0h-103l-288 351v-351h-103v518h103l288 -350v350h103v-518z" />
    <glyph glyph-name="o" unicode="o" horiz-adv-x="833" 
d="M734 264q0 -85 -46 -150t-118.5 -98t-155.5 -33q-129 0 -223 76t-94 202q0 125 95 199.5t223 74.5q131 0 225 -72t94 -199zM629 263q0 81 -64 123.5t-149 42.5q-55 0 -102 -17t-79.5 -57t-32.5 -96q0 -82 64.5 -126t150.5 -44q83 0 147.5 47t64.5 127z" />
    <glyph glyph-name="p" unicode="p" horiz-adv-x="704" 
d="M646 354q0 -71 -46 -120q-28 -31 -58.5 -39t-82.5 -8h-209v-187h-102v518h329q39 0 63 -7t50 -30q56 -48 56 -127zM541 355q0 35 -22 47t-60 12h-209v-124h209q42 0 62 13t20 52z" />
    <glyph glyph-name="q" unicode="q" horiz-adv-x="815" 
d="M726 258q0 -123 -113 -213l66 -74l-99 -41l-66 68q-60 -15 -111 -15q-127 0 -220 76t-93 201q0 85 48.5 149.5t121.5 95t156 30.5q128 0 219 -75.5t91 -201.5zM621 261q0 82 -64 125t-150 43q-85 0 -148 -45t-63 -127q0 -73 58.5 -120.5t133.5 -47.5q21 0 42 3l-26 32
l99 42l36 -39q82 54 82 134z" />
    <glyph glyph-name="r" unicode="r" horiz-adv-x="722" 
d="M677 0h-131l-131 212h-165v-212h-105v518h354q60 0 99 -28q64 -45 64 -128q0 -113 -116 -150zM557 365q0 31 -20.5 40t-55.5 9h-231v-99h249q25 0 41.5 13t16.5 37z" />
    <glyph glyph-name="s" unicode="s" horiz-adv-x="685" 
d="M621 156q0 -51 -25 -87.5t-67.5 -54t-85.5 -25t-91 -7.5q-97 0 -154 18t-137 74l48 93q77 -48 132 -64t145 -16q27 0 54 5.5t51.5 23t24.5 45.5q0 47 -78 52q-29 2 -81.5 2.5t-73.5 1.5q-79 3 -134 43t-55 116q0 46 22.5 79t60.5 49.5t77 23.5t83 7q123 0 250 -68
l-47 -92q-108 57 -228 57q-23 0 -46.5 -4t-45.5 -18.5t-22 -37.5q0 -47 92 -50q23 -1 68 -1.5t67 -1.5q87 -3 141.5 -42t54.5 -121z" />
    <glyph glyph-name="t" unicode="t" horiz-adv-x="611" 
d="M550 415h-195v-415h-103v415h-188v103h486v-103z" />
    <glyph glyph-name="u" unicode="u" horiz-adv-x="796" 
d="M647 203q0 -46 -7.5 -77t-31.5 -61q-66 -82 -217 -82q-113 0 -178.5 54.5t-65.5 165.5v315h103v-315q0 -72 38.5 -93.5t117.5 -21.5q60 0 100 23q22 12 30.5 31.5t8.5 60.5v315h102v-315z" />
    <glyph glyph-name="v" unicode="v" horiz-adv-x="667" 
d="M647 518l-249 -518h-133l-245 518h116l195 -413l199 413h117z" />
    <glyph glyph-name="w" unicode="w" horiz-adv-x="833" 
d="M817 518l-162 -518h-139l-100 380l-100 -380h-137l-159 518h111l114 -380l106 380h134l103 -380l119 380h110z" />
    <glyph glyph-name="x" unicode="x" horiz-adv-x="667" 
d="M641 0h-140l-166 198l-169 -198h-141l239 280l-200 237h141l130 -158l137 158h137l-204 -237z" />
    <glyph glyph-name="y" unicode="y" horiz-adv-x="574" 
d="M559 518l-214 -309v-209h-102v209l-218 309h130l138 -204l142 204h124z" />
    <glyph glyph-name="z" unicode="z" horiz-adv-x="537" 
d="M521 0h-469l-36 67l321 347h-285v104h423l46 -70l-323 -344h323v-104z" />
    <glyph glyph-name="braceleft" unicode="{" horiz-adv-x="426" 
d="M333 -16q-98 0 -137 30.5t-39 103.5v153q0 45 -15.5 60.5t-68.5 15.5v59q51 0 67 14t16 61v146q0 73 39.5 103.5t137.5 30.5v-66q-51 0 -68 -13t-17 -53v-133q0 -94 -60 -121q59 -26 59 -118v-141q0 -38 18.5 -52t67.5 -14v-66z" />
    <glyph glyph-name="bar" unicode="|" horiz-adv-x="372" 
d="M232 -250h-92v1000h92v-1000z" />
    <glyph glyph-name="braceright" unicode="}" horiz-adv-x="426" 
d="M363 347q-53 0 -68 -15.5t-15 -60.5v-153q0 -73 -39.5 -103.5t-137.5 -30.5v66q49 0 67 14t18 52v141q0 91 60 118q-59 26 -59 121v133q0 39 -17.5 52.5t-68.5 13.5v66q98 0 137 -30.5t39 -103.5v-146q0 -47 16 -61t68 -14v-59z" />
    <glyph glyph-name="asciitilde" unicode="~" horiz-adv-x="889" 
d="M709 234q-22 -24 -38 -39t-47 -30.5t-63 -15.5q-50 0 -122.5 31t-100.5 31q-35 0 -90 -61l-60 72q29 34 69.5 60t75.5 26q43 0 115 -29.5t107 -29.5q51 0 94 57z" />
    <glyph glyph-name="uni00A0" unicode="&#xa0;" horiz-adv-x="370" 
 />
    <glyph glyph-name="exclamdown" unicode="&#xa1;" horiz-adv-x="352" 
d="M250 693q0 -30 -21 -51.5t-51 -21.5t-51 21.5t-21 51.5t21 51.5t51 21.5t51 -21.5t21 -51.5zM233 0h-111l21 552h71z" />
    <glyph glyph-name="cent" unicode="&#xa2;" horiz-adv-x="889" 
d="M753 125q-65 -41 -110 -57.5t-114 -21.5v-93h-99v95q-110 12 -185 84.5t-75 180.5q0 112 73.5 186.5t186.5 90.5v94h99v-94q96 -9 215 -94l-61 -91q-69 61 -154 76v-327q56 7 91.5 20.5t85.5 45.5zM430 156v326q-60 -5 -108 -55t-48 -110q0 -63 45.5 -106t110.5 -55z" />
    <glyph glyph-name="sterling" unicode="&#xa3;" horiz-adv-x="889" 
d="M746 463h-105q-1 55 -40 82.5t-95 27.5q-138 0 -138 -145v-55h172v-99h-172v-167h352v-107h-551v107h90v167h-90v99h90v82q0 108 72 161t185 53q92 0 161 -48t69 -136v-22z" />
    <glyph glyph-name="currency" unicode="&#xa4;" horiz-adv-x="753" 
d="M610 174q-7 -7 -21.5 -22t-22.5 -23q-33 34 -67 67q-51 -38 -117 -38t-116 38q-23 -22 -68 -67q-28 30 -43 45q1 1 27.5 26.5t40.5 38.5q-38 54 -38 115q0 66 38 115q-46 44 -68 66q15 15 43 45q45 -45 68 -67q54 38 116 38q68 0 116 -38q46 44 68 67q8 -7 22.5 -22
t21.5 -23q-22 -22 -68 -66q38 -52 38 -115q0 -62 -38 -115q10 -9 21.5 -20t25.5 -24.5t21 -20.5zM518 355q0 58 -41 96t-94 38q-58 0 -97 -39.5t-39 -94.5t40 -95.5t95 -40.5q56 0 96 40t40 96z" />
    <glyph glyph-name="yen" unicode="&#xa5;" horiz-adv-x="759" 
d="M725 652l-199 -248h131v-67h-183l-45 -56v-19h228v-67h-227v-195h-104v195h-229v67h229v19l-44 56h-185v67h133l-196 248h123l222 -277l218 277h128z" />
    <glyph glyph-name="brokenbar" unicode="&#xa6;" horiz-adv-x="372" 
d="M232 325h-92v350h92v-350zM232 -175h-92v350h92v-350z" />
    <glyph glyph-name="section" unicode="&#xa7;" horiz-adv-x="611" 
d="M539 348q0 -53 -55 -95q47 -43 47 -109q0 -79 -65.5 -123.5t-173.5 -44.5q-59 0 -120.5 20.5t-105.5 63.5l38 85q94 -83 189 -83q141 0 141 81q0 42 -75 70l-153 58q-124 47 -124 154q0 57 53 100q-34 37 -34 91q0 53 34 89.5t78 50t92 13.5q56 0 115.5 -21t100.5 -61
l-37 -85q-34 36 -83.5 57.5t-93.5 21.5q-53 0 -80 -14t-27 -48q0 -43 64 -67l153 -57q53 -20 87.5 -57.5t34.5 -89.5zM439 344q0 40 -60 65l-170 69q-30 -21 -30 -50q0 -45 77 -74l153 -58q30 18 30 48z" />
    <glyph glyph-name="dieresis" unicode="&#xa8;" 
d="M331 586h-92v97h92v-97zM150 586h-92v97h92v-97z" />
    <glyph glyph-name="copyright" unicode="&#xa9;" horiz-adv-x="945" 
d="M862 372q0 -161 -114 -275t-276 -114q-161 0 -275 114t-114 275t114 275t275 114q162 0 276 -114t114 -275zM784 372q0 130 -91 220.5t-220 90.5q-130 0 -221 -91t-91 -220q0 -128 91.5 -220t220.5 -92t220 91.5t91 220.5zM676 261q-91 -89 -190 -89q-95 0 -162.5 56.5
t-67.5 146.5q0 88 65.5 146t158.5 58q56 0 107.5 -26t83.5 -64l-60 -55q-22 27 -58.5 45.5t-74.5 18.5q-55 0 -95.5 -35.5t-40.5 -86.5q0 -54 42.5 -88.5t103.5 -34.5q66 0 130 70z" />
    <glyph glyph-name="ordfeminine" unicode="&#xaa;" horiz-adv-x="500" 
d="M420 304h-79v38q-37 -54 -125 -54q-66 0 -111 32t-45 95q0 53 29 78t85 33q34 5 91 5l76 1q0 68 -96 68q-72 0 -87 -41h-79q10 44 40 69.5t63.5 32.5t81.5 7q79 0 117.5 -33.5t38.5 -109.5v-221zM344 463h-110q-46 0 -70.5 -10t-24.5 -38q0 -29 25 -42.5t58 -13.5
q116 0 122 104z" />
    <glyph glyph-name="guillemotleft" unicode="&#xab;" horiz-adv-x="593" 
d="M529 67h-100l-134 196l134 193h100l-115 -193zM297 67h-100l-134 196l134 193h100l-115 -193z" />
    <glyph glyph-name="logicalnot" unicode="&#xac;" horiz-adv-x="889" 
d="M682 97h-92v180h-383v93h475v-273z" />
    <glyph glyph-name="uni00AD" unicode="&#xad;" horiz-adv-x="610" 
d="M480 200h-350v119h350v-119z" />
    <glyph glyph-name="registered" unicode="&#xae;" horiz-adv-x="945" 
d="M862 372q0 -161 -114 -275t-275 -114q-162 0 -276 114t-114 275t114 275t275 114q162 0 276 -114t114 -275zM784 372q0 130 -91 220.5t-220 90.5q-130 0 -221 -91t-91 -220q0 -128 91.5 -220t219.5 -92q130 0 221 91.5t91 220.5zM671 183h-94l-81 146h-108v-146h-81v394
h196q45 0 66 -4t44 -19q52 -34 52 -101q0 -39 -21.5 -72t-58.5 -45zM584 452q0 43 -57 43h-139v-84h132q37 0 48 7q16 12 16 34z" />
    <glyph glyph-name="macron" unicode="&#xaf;" 
d="M330 606h-271v65h271v-65z" />
    <glyph glyph-name="degree" unicode="&#xb0;" 
d="M318 645q0 -52 -36 -88t-87 -36q-52 0 -88 36t-36 87q0 52 36 88t87 36q52 0 88 -36t36 -87zM252 644q0 23 -17 40.5t-41 17.5t-40.5 -17t-16.5 -41t17 -40.5t40 -16.5q24 0 41 16.5t17 40.5z" />
    <glyph glyph-name="plusminus" unicode="&#xb1;" horiz-adv-x="889" 
d="M682 219h-191v-160h-93v160h-191v93h191v156h93v-156h191v-93zM682 -94h-475v93h475v-93z" />
    <glyph glyph-name="two.superior" unicode="&#xb2;" horiz-adv-x="519" 
d="M459 539q0 -49 -44 -78t-95 -31q-36 -1 -62 -4.5t-53.5 -12t-42 -25t-14.5 -40.5h302v-86h-399q0 8 -1.5 24t-1.5 24q0 74 47.5 124t123.5 61q14 2 44 6t44 6q53 8 53 33q0 23 -31 32.5t-62 9.5q-50 0 -83.5 -8.5t-86.5 -33.5l-37 78q64 31 105.5 40.5t109.5 9.5
q75 0 129.5 -30t54.5 -99z" />
    <glyph glyph-name="three.superior" unicode="&#xb3;" horiz-adv-x="519" 
d="M490 379q0 -38 -25 -64.5t-65.5 -38.5t-75.5 -16.5t-69 -4.5q-131 0 -225 57l47 71q76 -43 176 -43q136 0 136 42q0 36 -57 44q-36 6 -112 6v79q21 0 57 3q86 6 86 37q0 20 -29 29t-57 9q-46 0 -79.5 -8t-84.5 -29l-42 76q62 30 101.5 39t104.5 9q29 0 59 -5.5t60 -18
t48.5 -37t18.5 -57.5q0 -45 -44 -78q71 -38 71 -101z" />
    <glyph glyph-name="acute" unicode="&#xb4;" 
d="M284 695l-106 -122h-91l80 122h117z" />
    <glyph glyph-name="mu" unicode="&#xb5;" horiz-adv-x="796" 
d="M647 0h-97v54q-15 -21 -60.5 -46t-94.5 -25t-91 21t-54 46v-203h-103v671h103v-315q0 -38 12 -62.5t35.5 -35t45.5 -14t54 -3.5q71 0 109.5 25.5t38.5 89.5v315h102v-518z" />
    <glyph glyph-name="paragraph" unicode="&#xb6;" horiz-adv-x="833" 
d="M747 0h-103v650h-81v-650h-106v303h-110q-38 0 -61.5 1.5t-57.5 10.5t-60 26q-46 30 -69 78.5t-23 103.5q0 110 77 175q35 29 72 38.5t89 9.5h433v-746zM457 403v247h-143q-66 0 -97.5 -29.5t-31.5 -95.5q0 -32 12 -60t35 -41q36 -21 115 -21h110z" />
    <glyph glyph-name="periodcentered" unicode="&#xb7;" horiz-adv-x="370" 
d="M255 355q0 -29 -20.5 -50.5t-49.5 -21.5t-49.5 21.5t-20.5 50.5t20.5 50.5t49.5 21.5t49.5 -21.5t20.5 -50.5z" />
    <glyph glyph-name="cedilla" unicode="&#xb8;" 
d="M320 -149q0 -51 -42.5 -73t-99.5 -22q-34 0 -55.5 6.5t-53.5 23.5l25 55q35 -20 86 -20q20 0 36 8t16 26q0 16 -14.5 24t-31.5 8t-45 -8l-21 27l76 104h81l-59 -79q48 -1 75 -18.5t27 -61.5z" />
    <glyph glyph-name="one.superior" unicode="&#xb9;" horiz-adv-x="519" 
d="M307 267h-95v392h95v-392z" />
    <glyph glyph-name="ordmasculine" unicode="&#xba;" horiz-adv-x="500" 
d="M470 476q0 -88 -64 -137.5t-152 -49.5q-89 0 -152.5 51.5t-63.5 140.5q0 86 64 136.5t149 50.5q88 0 153.5 -52t65.5 -140zM387 476q0 52 -40 83.5t-94 31.5q-53 0 -92.5 -30.5t-39.5 -81.5q0 -52 40 -82.5t94 -30.5t93 29.5t39 80.5z" />
    <glyph glyph-name="guillemotright" unicode="&#xbb;" horiz-adv-x="593" 
d="M529 263l-134 -196h-100l115 196l-115 193h100zM298 263l-135 -196h-100l116 196l-116 193h100z" />
    <glyph glyph-name="onequarter" unicode="&#xbc;" horiz-adv-x="1241" 
d="M1089 96h-90v-96h-93v96h-264l-32 73l285 243h103v-235h91v-81zM845 718l-551 -758h-96l550 758h97zM267 267h-95v392h95v-392zM906 177v139l-173 -139h173z" />
    <glyph glyph-name="onehalf" unicode="&#xbd;" horiz-adv-x="1241" 
d="M1096 277q0 -49 -44 -78t-95 -31q-36 -1 -62 -4.5t-53.5 -12t-42 -25t-14.5 -40.5h302v-86h-399q0 8 -1.5 24t-1.5 24q0 74 47.5 124t123.5 61q15 2 44 6t44 6q53 8 53 33q0 23 -31 32.5t-62 9.5q-50 0 -83.5 -8.5t-86.5 -33.5l-37 78q64 31 105.5 40.5t109.5 9.5
q75 0 129.5 -30t54.5 -99zM835 718l-551 -758h-96l550 758h97zM252 267h-95v392h95v-392z" />
    <glyph glyph-name="threequarters" unicode="&#xbe;" horiz-adv-x="1241" 
d="M1179 96h-90v-96h-93v96h-264l-32 73l285 243h103v-235h91v-81zM975 718l-551 -758h-96l550 758h97zM505 379q0 -38 -25 -64.5t-65.5 -38.5t-75.5 -16.5t-69 -4.5q-131 0 -225 57l47 71q76 -43 176 -43q136 0 136 42q0 36 -57 44q-36 6 -112 6v79q21 0 57 3q86 6 86 37
q0 20 -29 29t-57 9q-46 0 -79.5 -8t-84.5 -29l-42 76q62 30 101.5 39t104.5 9q29 0 59 -5.5t60 -18t48.5 -37t18.5 -57.5q0 -45 -44 -78q71 -38 71 -101zM996 177v139l-173 -139h173z" />
    <glyph glyph-name="questiondown" unicode="&#xbf;" horiz-adv-x="593" 
d="M435 695q0 -30 -21 -51.5t-51 -21.5t-51 21.5t-21 51.5t21 51.5t51 21.5t51 -21.5t21 -51.5zM530 2q-72 -20 -197 -20q-260 0 -260 196q0 102 109 185l101 76q24 19 24 57v65h113v-74q0 -45 -8.5 -67.5t-32.5 -40.5l-106 -82q-74 -57 -74 -118q0 -95 171 -95q86 0 160 21
v-103z" />
    <glyph glyph-name="Agrave" unicode="&#xc0;" horiz-adv-x="833" 
d="M503 813h-92l-105 122h117zM810 0h-122l-107 243h-335l-111 -243h-118l339 745h120zM532 353l-118 260l-118 -260h236z" />
    <glyph glyph-name="Aacute" unicode="&#xc1;" horiz-adv-x="833" 
d="M524 935l-106 -122h-91l80 122h117zM810 0h-122l-107 243h-335l-111 -243h-118l339 745h120zM532 353l-118 260l-118 -260h236z" />
    <glyph glyph-name="Acircumflex" unicode="&#xc2;" horiz-adv-x="833" 
d="M562 813h-89l-60 72l-54 -72h-88l88 124h113zM810 0h-122l-107 243h-335l-111 -243h-118l339 745h120zM532 353l-118 260l-118 -260h236z" />
    <glyph glyph-name="Atilde" unicode="&#xc3;" horiz-adv-x="833" 
d="M572 926q-3 -51 -20.5 -79.5t-64.5 -28.5q-40 0 -89 13t-59 13q-27 0 -27 -31h-75q0 53 20.5 80.5t72.5 27.5q25 0 69.5 -11.5t65.5 -11.5q33 0 33 28h74zM810 0h-122l-107 243h-335l-111 -243h-118l339 745h120zM532 353l-118 260l-118 -260h236z" />
    <glyph glyph-name="Adieresis" unicode="&#xc4;" horiz-adv-x="833" 
d="M548 826h-92v97h92v-97zM367 826h-92v97h92v-97zM810 0h-122l-107 243h-335l-111 -243h-118l339 745h120zM532 353l-118 260l-118 -260h236z" />
    <glyph glyph-name="Aring" unicode="&#xc5;" horiz-adv-x="833" 
d="M526 927q0 -47 -33.5 -80.5t-80.5 -33.5t-81 33.5t-34 80.5t33.5 80.5t80.5 33.5t81 -33.5t34 -80.5zM810 0h-122l-107 243h-335l-111 -243h-118l339 745h120zM461 927q0 20 -14.5 35t-34.5 15q-21 0 -36 -14.5t-15 -35.5q0 -20 15 -34.5t35 -14.5t34.5 14.5t14.5 34.5h1
zM532 353l-118 260l-118 -260h236z" />
    <glyph glyph-name="AE" unicode="&#xc6;" horiz-adv-x="1297" 
d="M1229 0h-634v245h-280l-180 -245h-118l561 746h631v-110h-505v-195h255v-108h-255v-224h525v-109zM595 355v278l-201 -278h201z" />
    <glyph glyph-name="Ccedilla" unicode="&#xc7;" horiz-adv-x="926" 
d="M864 134q-35 -42 -63 -63.5t-77 -44.5q-73 -34 -163 -42l-39 -53q101 0 101 -76q0 -99 -144 -99q-56 0 -106 30l25 55q34 -21 84 -21q19 0 36.5 8.5t17.5 25.5q0 16 -14.5 24.5t-31.5 8.5q-22 0 -46 -8l-19 27l56 77q-172 17 -279.5 120t-107.5 272q0 166 114 277.5
t281 111.5q204 0 363 -153l-81 -69q-137 113 -273 113q-125 0 -211 -78.5t-86 -202.5q0 -131 93 -206.5t227 -75.5q69 0 133 23q39 14 69 36.5t69 60.5z" />
    <glyph glyph-name="Egrave" unicode="&#xc8;" horiz-adv-x="852" 
d="M553 813h-92l-105 122h117zM784 0h-633v746h614v-110h-505v-195h254v-108h-254v-224h524v-109z" />
    <glyph glyph-name="Eacute" unicode="&#xc9;" horiz-adv-x="852" 
d="M584 935l-106 -122h-91l80 122h117zM784 0h-633v746h614v-110h-505v-195h254v-108h-254v-224h524v-109z" />
    <glyph glyph-name="Ecircumflex" unicode="&#xca;" horiz-adv-x="852" 
d="M610 813h-89l-60 72l-54 -72h-88l88 124h113zM784 0h-633v746h614v-110h-505v-195h254v-108h-254v-224h524v-109z" />
    <glyph glyph-name="Edieresis" unicode="&#xcb;" horiz-adv-x="852" 
d="M591 826h-92v97h92v-97zM410 826h-92v97h92v-97zM784 0h-633v746h614v-110h-505v-195h254v-108h-254v-224h524v-109z" />
    <glyph glyph-name="Igrave" unicode="&#xcc;" 
d="M283 813h-92l-105 122h117zM250 0h-107v746h107v-746z" />
    <glyph glyph-name="Iacute" unicode="&#xcd;" 
d="M304 935l-106 -122h-91l80 122h117zM250 0h-107v746h107v-746z" />
    <glyph glyph-name="Icircumflex" unicode="&#xce;" 
d="M341 813h-89l-60 72l-54 -72h-88l88 124h113zM250 0h-107v746h107v-746z" />
    <glyph glyph-name="Idieresis" unicode="&#xcf;" 
d="M331 826h-92v97h92v-97zM150 826h-92v97h92v-97zM250 0h-107v746h107v-746z" />
    <glyph glyph-name="Eth" unicode="&#xd0;" horiz-adv-x="926" 
d="M863 376q0 -75 -29.5 -148.5t-81.5 -128.5q-50 -54 -106 -76.5t-132 -22.5h-363v334h-131v108h131v304h363q95 0 161 -37q85 -48 136.5 -140.5t51.5 -192.5zM753 368q0 113 -64 191t-175 78h-256v-195h222v-108h-222v-225h256q106 0 172.5 75.5t66.5 183.5z" />
    <glyph glyph-name="Ntilde" unicode="&#xd1;" horiz-adv-x="963" 
d="M645 926q-3 -51 -20.5 -79.5t-64.5 -28.5q-40 0 -89 13t-59 13q-27 0 -27 -31h-75q0 53 20.5 80.5t72.5 27.5q25 0 69.5 -11.5t65.5 -11.5q33 0 33 28h74zM816 0h-108l-450 568v-568h-107v746h106l449 -570v570h110v-746z" />
    <glyph glyph-name="Ograve" unicode="&#xd2;" horiz-adv-x="1000" 
d="M583 813h-92l-105 122h117zM901 372q0 -163 -119 -276.5t-283 -113.5q-169 0 -285 116.5t-116 285.5q0 162 119.5 273t282.5 111q167 0 284 -115t117 -281zM793 378q0 121 -86 200.5t-208 79.5q-126 0 -210 -81t-84 -206q0 -118 87.5 -198.5t207.5 -80.5q121 0 207 83
t86 203z" />
    <glyph glyph-name="Oacute" unicode="&#xd3;" horiz-adv-x="1000" 
d="M624 935l-106 -122h-91l80 122h117zM901 372q0 -163 -119 -276.5t-283 -113.5q-169 0 -285 116.5t-116 285.5q0 162 119.5 273t282.5 111q167 0 284 -115t117 -281zM793 378q0 121 -86 200.5t-208 79.5q-126 0 -210 -81t-84 -206q0 -118 87.5 -198.5t207.5 -80.5
q121 0 207 83t86 203z" />
    <glyph glyph-name="Ocircumflex" unicode="&#xd4;" horiz-adv-x="1000" 
d="M648 813h-89l-60 72l-54 -72h-88l88 124h113zM901 372q0 -163 -119 -276.5t-283 -113.5q-169 0 -285 116.5t-116 285.5q0 162 119.5 273t282.5 111q167 0 284 -115t117 -281zM793 378q0 121 -86 200.5t-208 79.5q-126 0 -210 -81t-84 -206q0 -118 87.5 -198.5
t207.5 -80.5q121 0 207 83t86 203z" />
    <glyph glyph-name="Otilde" unicode="&#xd5;" horiz-adv-x="1000" 
d="M662 926q-3 -51 -20.5 -79.5t-64.5 -28.5q-40 0 -89 13t-59 13q-27 0 -27 -31h-75q0 53 20.5 80.5t72.5 27.5q25 0 69.5 -11.5t65.5 -11.5q33 0 33 28h74zM901 372q0 -163 -119 -276.5t-283 -113.5q-169 0 -285 116.5t-116 285.5q0 162 119.5 273t282.5 111
q167 0 284 -115t117 -281zM793 378q0 121 -86 200.5t-208 79.5q-126 0 -210 -81t-84 -206q0 -118 87.5 -198.5t207.5 -80.5q121 0 207 83t86 203z" />
    <glyph glyph-name="Odieresis" unicode="&#xd6;" horiz-adv-x="1000" 
d="M638 826h-92v97h92v-97zM457 826h-92v97h92v-97zM901 372q0 -163 -119 -276.5t-283 -113.5q-169 0 -285 116.5t-116 285.5q0 162 119.5 273t282.5 111q167 0 284 -115t117 -281zM793 378q0 121 -86 200.5t-208 79.5q-126 0 -210 -81t-84 -206q0 -118 87.5 -198.5
t207.5 -80.5q121 0 207 83t86 203z" />
    <glyph glyph-name="multiply" unicode="&#xd7;" horiz-adv-x="889" 
d="M656 379l-146 -145l144 -144l-66 -66l-144 144l-145 -146l-66 66l146 145l-144 144l66 66l144 -144l145 146z" />
    <glyph glyph-name="Oslash" unicode="&#xd8;" horiz-adv-x="1000" 
d="M901 372q0 -107 -55 -197t-147 -141.5t-199 -51.5q-127 0 -230 70l-101 -113l-67 61l100 111q-104 115 -104 270q0 164 118 275.5t283 111.5q127 0 231 -70l85 94l67 -61l-83 -93q102 -115 102 -266zM793 378q0 104 -66 180l-383 -424q70 -42 156 -42q121 0 207 83
t86 203zM657 616q-43 26 -75 34t-84 8q-122 0 -207.5 -80.5t-85.5 -201.5q0 -110 69 -185z" />
    <glyph glyph-name="Ugrave" unicode="&#xd9;" horiz-adv-x="963" 
d="M563 813h-92l-105 122h117zM810 282q0 -65 -10 -105.5t-43 -83.5q-82 -108 -283 -108q-86 0 -162 30t-119 93q-26 39 -34 77.5t-8 96.5v464h108v-464q0 -47 7.5 -76.5t34.5 -56.5q55 -55 190 -55q109 0 160.5 41t51.5 147v464h107v-464z" />
    <glyph glyph-name="Uacute" unicode="&#xda;" horiz-adv-x="963" 
d="M614 935l-106 -122h-91l80 122h117zM810 283q0 -65 -10 -106t-43 -84q-82 -108 -283 -108q-86 0 -162 30t-119 93q-26 38 -34 77.5t-8 97.5v463h108v-463q0 -47 7.5 -77t34.5 -57q55 -55 190 -55q108 0 160 41.5t52 147.5v463h107v-463z" />
    <glyph glyph-name="Ucircumflex" unicode="&#xdb;" horiz-adv-x="963" 
d="M623 813h-89l-60 72l-54 -72h-88l88 124h113zM810 283q0 -65 -10 -106t-43 -84q-82 -108 -283 -108q-86 0 -162 30t-119 93q-26 38 -34 77.5t-8 97.5v463h108v-463q0 -47 7.5 -77t34.5 -57q55 -55 190 -55q108 0 160 41.5t52 147.5v463h107v-463z" />
    <glyph glyph-name="Udieresis" unicode="&#xdc;" horiz-adv-x="963" 
d="M612 826h-92v97h92v-97zM431 826h-92v97h92v-97zM810 283q0 -65 -10 -106t-43 -84q-82 -108 -283 -108q-86 0 -162 30t-119 93q-26 38 -34 77.5t-8 97.5v463h108v-463q0 -47 7.5 -77t34.5 -57q55 -55 190 -55q108 0 160 41.5t52 147.5v463h107v-463z" />
    <glyph glyph-name="Yacute" unicode="&#xdd;" horiz-adv-x="759" 
d="M517 935l-106 -122h-91l80 122h117zM743 746l-308 -423v-323h-108v323l-303 423h131l228 -316l225 316h135z" />
    <glyph glyph-name="Thorn" unicode="&#xde;" horiz-adv-x="870" 
d="M804 383q0 -99 -59.5 -157.5t-158.5 -58.5h-324v-167h-109v746h109v-151h324q99 0 158.5 -56.5t59.5 -155.5zM696 382q0 55 -27.5 79.5t-82.5 24.5h-324v-210h324q110 0 110 106z" />
    <glyph glyph-name="germandbls" unicode="&#xdf;" horiz-adv-x="1372" 
d="M1311 156q0 -51 -25 -87.5t-67.5 -54t-85.5 -25t-91 -7.5q-97 0 -154 18t-137 74l48 93q77 -48 132 -64t145 -16q27 0 54 5.5t51.5 23t24.5 45.5q0 47 -78 52q-29 2 -81.5 2.5t-73.5 1.5q-79 3 -134 43t-55 116q0 46 22.5 79t60.5 49.5t77 23.5t83 7q123 0 250 -68
l-47 -92q-108 57 -228 57q-23 0 -46.5 -4t-45.5 -18.5t-22 -37.5q0 -47 92 -50q22 -1 67 -1.5t68 -1.5q87 -3 141.5 -42t54.5 -121zM621 156q0 -51 -25 -87.5t-67.5 -54t-85.5 -25t-91 -7.5q-97 0 -154 18t-137 74l48 93q77 -48 132 -64t145 -16q27 0 54 5.5t51.5 23
t24.5 45.5q0 47 -78 52q-29 2 -81.5 2.5t-73.5 1.5q-79 3 -134 43t-55 116q0 46 22.5 79t60.5 49.5t77 23.5t83 7q123 0 250 -68l-47 -92q-108 57 -228 57q-23 0 -46.5 -4t-45.5 -18.5t-22 -37.5q0 -47 92 -50q23 -1 68 -1.5t67 -1.5q87 -3 141.5 -42t54.5 -121z" />
    <glyph glyph-name="agrave" unicode="&#xe0;" horiz-adv-x="685" 
d="M433 580h-92l-105 122h117zM658 0h-118l-52 109h-303l-52 -109h-118l251 518h138zM436 212l-100 205l-100 -205h200z" />
    <glyph glyph-name="aacute" unicode="&#xe1;" horiz-adv-x="685" 
d="M424 702l-106 -122h-91l80 122h117zM658 0h-118l-52 109h-303l-52 -109h-118l251 518h138zM436 212l-100 205l-100 -205h200z" />
    <glyph glyph-name="acircumflex" unicode="&#xe2;" horiz-adv-x="685" 
d="M477 580h-89l-60 72l-54 -72h-88l88 124h113zM658 0h-118l-52 109h-303l-52 -109h-118l251 518h138zM436 212l-100 205l-100 -205h200z" />
    <glyph glyph-name="atilde" unicode="&#xe3;" horiz-adv-x="685" 
d="M502 693q-3 -51 -20.5 -79.5t-64.5 -28.5q-40 0 -89 13t-59 13q-27 0 -27 -31h-75q0 53 20.5 80.5t72.5 27.5q25 0 69.5 -11.5t65.5 -11.5q33 0 33 28h74zM658 0h-118l-52 109h-303l-52 -109h-118l251 518h138zM436 212l-100 205l-100 -205h200z" />
    <glyph glyph-name="adieresis" unicode="&#xe4;" horiz-adv-x="685" 
d="M470 593h-92v97h92v-97zM289 593h-92v97h92v-97zM658 0h-118l-52 109h-303l-52 -109h-118l251 518h138zM436 212l-100 205l-100 -205h200z" />
    <glyph glyph-name="aring" unicode="&#xe5;" horiz-adv-x="685" 
d="M445 687q0 -47 -33.5 -80.5t-80.5 -33.5t-81 33.5t-34 80.5t33.5 80.5t80.5 33.5t81 -33.5t34 -80.5zM658 0h-118l-52 109h-303l-52 -109h-118l251 518h138zM380 687q0 20 -14.5 35t-34.5 15q-21 0 -36 -14.5t-15 -35.5q0 -20 15 -34.5t35 -14.5t34.5 14.5t14.5 34.5h1z
M436 212l-100 205l-100 -205h200z" />
    <glyph glyph-name="ae" unicode="&#xe6;" horiz-adv-x="1018" 
d="M957 0h-470v109h-254l-93 -109h-116l451 518h470v-104h-355v-95h188v-103h-188v-112h367v-104zM487 212v197l-166 -197h166z" />
    <glyph glyph-name="ccedilla" unicode="&#xe7;" horiz-adv-x="741" 
d="M679 64q-65 -41 -107.5 -56.5t-115.5 -22.5l-40 -54q102 0 102 -76q0 -99 -145 -99q-53 0 -105 30l24 55q34 -21 84 -21q20 0 37 8t17 26q0 16 -14 24.5t-31 8.5q-22 0 -46 -8l-20 27l57 79q-119 10 -199.5 80.5t-80.5 186.5q0 127 90 205t219 78q79 0 135.5 -23
t129.5 -77l-61 -91q-98 85 -206 85q-79 0 -141 -48t-62 -124q0 -78 63.5 -124t144.5 -46q70 0 115 15.5t109 57.5z" />
    <glyph glyph-name="egrave" unicode="&#xe8;" horiz-adv-x="685" 
d="M463 580h-92l-105 122h117zM624 0h-470v518h458v-104h-356v-95h188v-103h-188v-112h368v-104z" />
    <glyph glyph-name="eacute" unicode="&#xe9;" horiz-adv-x="685" 
d="M504 702l-106 -122h-91l80 122h117zM624 0h-470v518h458v-104h-356v-95h188v-103h-188v-112h368v-104z" />
    <glyph glyph-name="ecircumflex" unicode="&#xea;" horiz-adv-x="685" 
d="M525 580h-89l-60 72l-54 -72h-88l88 124h113zM624 0h-470v518h458v-104h-356v-95h188v-103h-188v-112h368v-104z" />
    <glyph glyph-name="edieresis" unicode="&#xeb;" horiz-adv-x="685" 
d="M521 593h-92v97h92v-97zM340 593h-92v97h92v-97zM624 0h-470v518h458v-104h-356v-95h188v-103h-188v-112h368v-104z" />
    <glyph glyph-name="igrave" unicode="&#xec;" 
d="M273 580h-92l-105 122h117zM246 0h-102v518h102v-518z" />
    <glyph glyph-name="iacute" unicode="&#xed;" 
d="M314 702l-106 -122h-91l80 122h117zM246 0h-102v518h102v-518z" />
    <glyph glyph-name="icircumflex" unicode="&#xee;" 
d="M341 580h-89l-60 72l-54 -72h-88l88 124h113zM246 0h-102v518h102v-518z" />
    <glyph glyph-name="idieresis" unicode="&#xef;" 
d="M331 593h-92v97h92v-97zM150 593h-92v97h92v-97zM246 0h-102v518h102v-518z" />
    <glyph glyph-name="eth" unicode="&#xf0;" horiz-adv-x="759" 
d="M694 263q0 -126 -85 -204q-38 -35 -78.5 -47t-98.5 -12h-281v220h-87v93h87v205h281q55 0 87.5 -7t69.5 -32q51 -35 78 -92.5t27 -123.5zM589 261q0 75 -41 114t-116 39h-173v-101h160v-93h-160v-116h173q74 0 115.5 41.5t41.5 115.5z" />
    <glyph glyph-name="ntilde" unicode="&#xf1;" horiz-adv-x="796" 
d="M565 693q-3 -51 -20.5 -79.5t-64.5 -28.5q-40 0 -89 13t-59 13q-27 0 -27 -31h-75q0 53 20.5 80.5t72.5 27.5q25 0 69.5 -11.5t65.5 -11.5q33 0 33 28h74zM646 0h-103l-288 351v-351h-103v518h103l288 -350v350h103v-518z" />
    <glyph glyph-name="ograve" unicode="&#xf2;" horiz-adv-x="833" 
d="M483 580h-92l-105 122h117zM734 264q0 -85 -46 -150t-118.5 -98t-155.5 -33q-129 0 -223 76t-94 202q0 125 95 199.5t223 74.5q131 0 225 -72t94 -199zM629 263q0 81 -64 123.5t-149 42.5q-55 0 -102 -17t-79.5 -57t-32.5 -96q0 -82 64.5 -126t150.5 -44q83 0 147.5 47
t64.5 127z" />
    <glyph glyph-name="oacute" unicode="&#xf3;" horiz-adv-x="833" 
d="M524 702l-106 -122h-91l80 122h117zM734 264q0 -85 -46 -150t-118.5 -98t-155.5 -33q-129 0 -223 76t-94 202q0 125 95 199.5t223 74.5q131 0 225 -72t94 -199zM629 263q0 81 -64 123.5t-149 42.5q-55 0 -102 -17t-79.5 -57t-32.5 -96q0 -82 64.5 -126t150.5 -44
q83 0 147.5 47t64.5 127z" />
    <glyph glyph-name="ocircumflex" unicode="&#xf4;" horiz-adv-x="833" 
d="M560 580h-89l-60 72l-54 -72h-88l88 124h113zM734 264q0 -85 -46 -150t-118.5 -98t-155.5 -33q-129 0 -223 76t-94 202q0 125 95 199.5t223 74.5q131 0 225 -72t94 -199zM629 263q0 81 -64 123.5t-149 42.5q-55 0 -102 -17t-79.5 -57t-32.5 -96q0 -82 64.5 -126
t150.5 -44q83 0 147.5 47t64.5 127z" />
    <glyph glyph-name="otilde" unicode="&#xf5;" horiz-adv-x="833" 
d="M578 693q-3 -51 -20.5 -79.5t-64.5 -28.5q-40 0 -89 13t-59 13q-27 0 -27 -31h-75q0 53 20.5 80.5t72.5 27.5q25 0 69.5 -11.5t65.5 -11.5q33 0 33 28h74zM734 264q0 -85 -46 -150t-118.5 -98t-155.5 -33q-129 0 -223 76t-94 202q0 125 95 199.5t223 74.5q131 0 225 -72
t94 -199zM629 263q0 81 -64 123.5t-149 42.5q-55 0 -102 -17t-79.5 -57t-32.5 -96q0 -82 64.5 -126t150.5 -44q83 0 147.5 47t64.5 127z" />
    <glyph glyph-name="odieresis" unicode="&#xf6;" horiz-adv-x="833" 
d="M551 593h-92v97h92v-97zM370 593h-92v97h92v-97zM734 264q0 -85 -46 -150t-118.5 -98t-155.5 -33q-129 0 -223 76t-94 202q0 125 95 199.5t223 74.5q131 0 225 -72t94 -199zM629 263q0 81 -64 123.5t-149 42.5q-55 0 -102 -17t-79.5 -57t-32.5 -96q0 -82 64.5 -126
t150.5 -44q83 0 147.5 47t64.5 127z" />
    <glyph glyph-name="divide" unicode="&#xf7;" horiz-adv-x="889" 
d="M510 407q0 -28 -19 -47t-46 -19q-28 0 -47 19t-19 46q0 28 19 47t46 19q28 0 47 -19t19 -46zM682 187h-475v93h475v-93zM510 60v1q0 -28 -19 -47t-46 -19q-28 0 -47 19t-19 46q0 28 19 47t46 19q28 0 47 -19t19 -47z" />
    <glyph glyph-name="oslash" unicode="&#xf8;" horiz-adv-x="833" 
d="M734 263q0 -125 -95.5 -202.5t-223.5 -77.5q-50 0 -83 7.5t-79 28.5l-82 -93l-58 56l73 81q-40 35 -64.5 90t-24.5 109q0 124 94.5 198.5t222.5 74.5q51 0 84.5 -7t78.5 -27l75 83l58 -56l-63 -70q87 -81 87 -195zM629 263q0 67 -53 115l-247 -275q47 -14 87 -14
q84 0 148.5 46.5t64.5 127.5zM502 415q-47 14 -85 14q-40 0 -77 -10t-68.5 -29.5t-50.5 -53t-19 -75.5q0 -69 54 -120z" />
    <glyph glyph-name="ugrave" unicode="&#xf9;" horiz-adv-x="796" 
d="M473 580h-92l-105 122h117zM647 203q0 -46 -7.5 -77t-31.5 -61q-66 -82 -217 -82q-113 0 -178.5 54.5t-65.5 165.5v315h103v-315q0 -72 38.5 -93.5t117.5 -21.5q60 0 100 23q22 12 30.5 31.5t8.5 60.5v315h102v-315z" />
    <glyph glyph-name="uacute" unicode="&#xfa;" horiz-adv-x="796" 
d="M524 702l-106 -122h-91l80 122h117zM647 203q0 -46 -7.5 -77t-31.5 -61q-66 -82 -217 -82q-113 0 -178.5 54.5t-65.5 165.5v315h103v-315q0 -72 38.5 -93.5t117.5 -21.5q60 0 100 23q22 12 30.5 31.5t8.5 60.5v315h102v-315z" />
    <glyph glyph-name="ucircumflex" unicode="&#xfb;" horiz-adv-x="796" 
d="M544 580h-89l-60 72l-54 -72h-88l88 124h113zM647 203q0 -46 -7.5 -77t-31.5 -61q-66 -82 -217 -82q-113 0 -178.5 54.5t-65.5 165.5v315h103v-315q0 -72 38.5 -93.5t117.5 -21.5q60 0 100 23q22 12 30.5 31.5t8.5 60.5v315h102v-315z" />
    <glyph glyph-name="udieresis" unicode="&#xfc;" horiz-adv-x="796" 
d="M533 593h-92v97h92v-97zM352 593h-92v97h92v-97zM647 203q0 -46 -7.5 -77t-31.5 -61q-66 -82 -217 -82q-113 0 -178.5 54.5t-65.5 165.5v315h103v-315q0 -72 38.5 -93.5t117.5 -21.5q60 0 100 23q22 12 30.5 31.5t8.5 60.5v315h102v-315z" />
    <glyph glyph-name="yacute" unicode="&#xfd;" horiz-adv-x="574" 
d="M450 702l-106 -122h-91l80 122h117zM559 518l-214 -309v-209h-102v209l-218 309h130l138 -204l142 204h124z" />
    <glyph glyph-name="thorn" unicode="&#xfe;" horiz-adv-x="704" 
d="M646 266q0 -71 -46 -120q-28 -30 -59 -38.5t-82 -8.5h-209v-99h-102v518h102v-89h209q56 0 80 -6.5t51 -29.5q56 -48 56 -127zM541 267q0 35 -22 47t-60 12h-209v-124h209q42 0 62 13t20 52z" />
    <glyph glyph-name="ydieresis" unicode="&#xff;" horiz-adv-x="574" 
d="M433 593h-92v97h92v-97zM252 593h-92v97h92v-97zM559 518l-214 -309v-209h-102v209l-218 309h130l138 -204l142 204h124z" />
    <glyph glyph-name="dotlessi" unicode="&#x131;" 
d="M246 0h-102v518h102v-518z" />
    <glyph glyph-name="Lslash" unicode="&#x141;" horiz-adv-x="741" 
d="M719 0h-563v297l-77 -50l-49 69l126 89v347h109v-271l138 97l49 -69l-187 -136v-264h454v-109z" />
    <glyph glyph-name="lslash" unicode="&#x142;" horiz-adv-x="574" 
d="M549 0h-402v184l-45 -28l-45 66l90 64v232h107v-156l78 52l45 -66l-123 -88v-154h295v-106z" />
    <glyph glyph-name="OE" unicode="&#x152;" horiz-adv-x="1315" 
d="M1247 0h-617q-7 0 -50 -9t-80 -9q-174 0 -288 112.5t-114 285.5q0 172 115.5 280t291.5 108q35 0 83.5 -10.5t51.5 -10.5h588v-110h-505v-195h254v-108h-254v-225h524v-109zM614 114v523q-56 21 -116 21q-127 0 -210 -77t-83 -205q0 -129 82.5 -206.5t212.5 -77.5
q56 0 114 22z" />
    <glyph glyph-name="oe" unicode="&#x153;" horiz-adv-x="1036" 
d="M975 0h-438q-4 0 -46 -8.5t-77 -8.5q-140 0 -228.5 74.5t-88.5 202.5q0 133 90.5 203t240.5 70q27 0 62 -7.5t48 -7.5h425v-104h-356v-95h188v-103h-188v-112h368v-104zM511 100v319q-47 10 -84 10q-221 0 -221 -169q0 -87 60.5 -129t160.5 -42q42 0 84 11z" />
    <glyph glyph-name="Scaron" unicode="&#x160;" horiz-adv-x="833" 
d="M576 937l-89 -124h-113l-89 124h87l54 -72l60 72h90zM772 218q0 -64 -34 -112.5t-89 -73.5t-112.5 -37t-117.5 -12q-115 0 -204.5 36t-168.5 117l76 73q70 -65 141 -90.5t171 -25.5q35 0 71.5 6t74.5 20t61.5 42t23.5 66q0 53 -50 85q-28 18 -62.5 22.5t-123.5 6.5
l-112 2q-94 2 -158 51t-64 140q0 77 53.5 132t132.5 81q61 19 129 19q175 0 310 -102l-61 -87q-68 42 -117.5 60t-117.5 18q-32 0 -66 -5.5t-70.5 -18t-59.5 -37.5t-23 -59q0 -86 126 -86h111q52 0 81 -2t69 -12t75 -31q50 -30 77.5 -78.5t27.5 -107.5z" />
    <glyph glyph-name="scaron" unicode="&#x161;" horiz-adv-x="685" 
d="M484 704l-89 -124h-113l-89 124h87l54 -72l60 72h90zM621 156q0 -51 -25 -87.5t-67.5 -54t-85.5 -25t-91 -7.5q-97 0 -154 18t-137 74l48 93q77 -48 132 -64t145 -16q27 0 54 5.5t51.5 23t24.5 45.5q0 47 -78 52q-29 2 -81.5 2.5t-73.5 1.5q-79 3 -134 43t-55 116
q0 46 22.5 79t60.5 49.5t77 23.5t83 7q123 0 250 -68l-47 -92q-108 57 -228 57q-23 0 -46.5 -4t-45.5 -18.5t-22 -37.5q0 -47 92 -50q23 -1 68 -1.5t67 -1.5q87 -3 141.5 -42t54.5 -121z" />
    <glyph glyph-name="Ydieresis" unicode="&#x178;" horiz-adv-x="759" 
d="M515 826h-92v97h92v-97zM334 826h-92v97h92v-97zM743 746l-308 -423v-323h-108v323l-303 423h131l228 -316l225 316h135z" />
    <glyph glyph-name="Zcaron" unicode="&#x17d;" horiz-adv-x="704" 
d="M500 937l-89 -124h-113l-89 124h87l54 -72l60 72h90zM678 0h-621l-35 75l476 561h-434v110h569l39 -74l-478 -561h484v-111z" />
    <glyph glyph-name="zcaron" unicode="&#x17e;" horiz-adv-x="537" 
d="M415 704l-89 -124h-113l-89 124h87l54 -72l60 72h90zM521 0h-469l-36 67l321 347h-285v104h423l46 -70l-323 -344h323v-104z" />
    <glyph glyph-name="florin" unicode="&#x192;" horiz-adv-x="704" 
d="M591 662l-16 -88q-40 4 -59 4q-97 0 -109 -81l-5 -33h149l-10 -82h-151l-38 -268q-19 -128 -41 -175q-23 -50 -65 -69t-104 -19q-12 0 -26 0.5t-31 1.5t-26 1l19 90q48 -2 72 -2q31 0 49 12q6 4 11.5 10.5t10.5 16t8.5 18t6.5 22t5 21t4.5 23t3.5 21t3 20.5t2 16l36 260
h-143l16 82h138l10 65q22 139 188 139q45 0 92 -6z" />
    <glyph glyph-name="circumflex" unicode="&#x2c6;" 
d="M340 573h-89l-60 72l-54 -72h-88l88 124h113z" />
    <glyph glyph-name="caron" unicode="&#x2c7;" 
d="M340 697l-89 -124h-113l-89 124h87l54 -72l60 72h90z" />
    <glyph glyph-name="uni02C9" unicode="&#x2c9;" 
d="M330 606h-271v65h271v-65z" />
    <glyph glyph-name="breve" unicode="&#x2d8;" 
d="M345 696q-4 -58 -47.5 -90.5t-103.5 -32.5t-103 32.5t-47 90.5h82q6 -24 24.5 -38t43.5 -14t43.5 14t24.5 38h83z" />
    <glyph glyph-name="dotaccent" unicode="&#x2d9;" 
d="M241 586h-93v97h93v-97z" />
    <glyph glyph-name="ring" unicode="&#x2da;" 
d="M309 687q0 -47 -33.5 -80.5t-80.5 -33.5t-81 33.5t-34 80.5t33.5 80.5t80.5 33.5t81 -33.5t34 -80.5zM244 687q0 20 -14.5 35t-34.5 15q-21 0 -36 -14.5t-15 -35.5q0 -20 15 -34.5t35 -14.5t34.5 14.5t14.5 34.5h1z" />
    <glyph glyph-name="ogonek" unicode="&#x2db;" 
d="M297 -161q-49 -46 -119 -46q-38 0 -62 21t-24 58q0 97 122 157l36 -10q-62 -84 -62 -128q0 -18 10.5 -29t28.5 -11q31 0 58 20z" />
    <glyph glyph-name="tilde" unicode="&#x2dc;" 
d="M362 686q-3 -51 -20.5 -79.5t-64.5 -28.5q-40 0 -89 13t-59 13q-27 0 -27 -31h-75q0 53 20.5 80.5t72.5 27.5q25 0 69.5 -11.5t65.5 -11.5q33 0 33 28h74z" />
    <glyph glyph-name="hungarumlaut" unicode="&#x2dd;" 
d="M372 695l-106 -122h-92l80 122h118zM214 695l-105 -122h-92l80 122h117z" />
    <glyph glyph-name="uni03A9" unicode="&#x3a9;" horiz-adv-x="968" 
d="M926 0h-337v90q42 25 74 48.5t69 60.5t57.5 84.5t20.5 102.5q0 93 -84.5 162t-232.5 69q-133 0 -228 -63.5t-95 -170.5q0 -44 15.5 -85t37 -70t55 -58t57.5 -45t55 -35v-90h-339v90h228q-94 43 -160 121.5t-66 188.5q0 139 120.5 225.5t314.5 86.5q213 0 325.5 -90
t112.5 -219q0 -104 -69 -188.5t-168 -124.5h237v-90z" />
    <glyph glyph-name="uni03BC" unicode="&#x3bc;" horiz-adv-x="796" 
d="M647 0h-97v54q-15 -21 -60.5 -46t-94.5 -25t-91 21t-54 46v-203h-103v671h103v-315q0 -38 12 -62.5t35.5 -35t45.5 -14t54 -3.5q71 0 109.5 25.5t38.5 89.5v315h102v-518z" />
    <glyph glyph-name="pi" unicode="&#x3c0;" horiz-adv-x="1071" 
d="M930 82l21 -73q-37 -17 -98 -17q-155 0 -155 153v274h-323v-283q0 -82 -24 -136h-112q25 52 25 140v279q-78 -2 -143 -31q-1 3 -16 37t-15 37q28 15 80 26.5t106 11.5h675v-81h-143v-260q0 -86 77 -86q18 0 45 9z" />
    <glyph glyph-name="endash" unicode="&#x2013;" horiz-adv-x="370" 
d="M380 212h-389v95h389v-95z" />
    <glyph glyph-name="emdash" unicode="&#x2014;" horiz-adv-x="1000" 
d="M1009 212h-1018v95h1018v-95z" />
    <glyph glyph-name="uni2015" unicode="&#x2015;" horiz-adv-x="1000" 
d="M1000 -25h-1000l1 25h999v-25z" />
    <glyph glyph-name="quoteleft" unicode="&#x2018;" horiz-adv-x="407" 
d="M261 535q0 -25 -19.5 -43.5t-44.5 -18.5q-42 0 -67.5 35t-25.5 79q0 89 94 167q18 15 30 15q24 0 24 -26q0 -16 -15 -27q-23 -14 -40.5 -38t-17.5 -48q0 -26 20 -26q29 0 45.5 -19t16.5 -50z" />
    <glyph glyph-name="quoteright" unicode="&#x2019;" horiz-adv-x="407" 
d="M306 656q0 -90 -93 -168q-23 -15 -30 -15q-24 0 -24 26q0 17 15 28q23 14 40.5 38t17.5 48q0 26 -20 26q-29 0 -46 19t-17 50q0 25 20 43t45 18q42 0 67 -34.5t25 -78.5z" />
    <glyph glyph-name="quotesinglbase" unicode="&#x201a;" horiz-adv-x="407" 
d="M306 2q0 -90 -93 -168q-23 -15 -30 -15q-24 0 -24 26q0 17 15 28q23 14 40.5 38t17.5 48q0 26 -20 26q-29 0 -46 19t-17 50q0 25 20 43t45 18q42 0 67 -34.5t25 -78.5z" />
    <glyph glyph-name="quotedblleft" unicode="&#x201c;" horiz-adv-x="667" 
d="M526 535q0 -25 -19.5 -43.5t-44.5 -18.5q-42 0 -67.5 35t-25.5 79q0 89 94 167q18 15 30 15q24 0 24 -26q0 -16 -15 -27q-23 -14 -40.5 -38t-17.5 -48q0 -26 20 -26q29 0 45.5 -19t16.5 -50zM306 535q0 -25 -19.5 -43.5t-44.5 -18.5q-42 0 -67.5 35t-25.5 79q0 89 94 167
q18 15 30 15q24 0 24 -26q0 -16 -15 -27q-23 -14 -40.5 -38t-17.5 -48q0 -26 20 -26q29 0 45.5 -19t16.5 -50z" />
    <glyph glyph-name="quotedblright" unicode="&#x201d;" horiz-adv-x="667" 
d="M526 656q0 -90 -93 -168q-23 -15 -30 -15q-24 0 -24 26q0 17 15 28q23 14 40.5 38t17.5 48q0 26 -20 26q-29 0 -46 19t-17 50q0 25 20 43t45 18q42 0 67 -34.5t25 -78.5zM306 656q0 -90 -93 -168q-23 -15 -30 -15q-24 0 -24 26q0 17 15 28q23 14 40.5 38t17.5 48
q0 26 -20 26q-29 0 -46 19t-17 50q0 25 20 43t45 18q42 0 67 -34.5t25 -78.5z" />
    <glyph glyph-name="quotedblbase" unicode="&#x201e;" horiz-adv-x="667" 
d="M526 2q0 -90 -93 -168q-23 -15 -30 -15q-24 0 -24 26q0 17 15 28q23 14 40.5 38t17.5 48q0 26 -20 26q-29 0 -46 19t-17 50q0 25 20 43t45 18q42 0 67 -34.5t25 -78.5zM306 2q0 -90 -93 -168q-23 -15 -30 -15q-24 0 -24 26q0 17 15 28q23 14 40.5 38t17.5 48q0 26 -20 26
q-29 0 -46 19t-17 50q0 25 20 43t45 18q42 0 67 -34.5t25 -78.5z" />
    <glyph glyph-name="dagger" unicode="&#x2020;" horiz-adv-x="593" 
d="M534 448h-188v-448h-99v448h-189v94h189v203h99v-203h188v-94z" />
    <glyph glyph-name="daggerdbl" unicode="&#x2021;" horiz-adv-x="593" 
d="M534 191h-188v-191h-99v191h-189v94h189v179h-189v94h189v187h99v-187h188v-94h-188v-179h188v-94z" />
    <glyph glyph-name="bullet" unicode="&#x2022;" horiz-adv-x="500" 
d="M387 372q0 -56 -40 -95.5t-96 -39.5t-96 39.5t-40 95.5t40 96.5t96 40.5t96 -40.5t40 -96.5z" />
    <glyph glyph-name="ellipsis" unicode="&#x2026;" horiz-adv-x="1112" 
d="M997 55q0 -29 -20.5 -50.5t-49.5 -21.5t-49.5 21.5t-20.5 50.5t20.5 50.5t49.5 21.5t49.5 -21.5t20.5 -50.5zM626 55q0 -29 -20.5 -50.5t-49.5 -21.5t-49.5 21.5t-20.5 50.5t20.5 50.5t49.5 21.5t49.5 -21.5t20.5 -50.5zM255 55q0 -29 -20.5 -50.5t-49.5 -21.5
t-49.5 21.5t-20.5 50.5t20.5 50.5t49.5 21.5t49.5 -21.5t20.5 -50.5z" />
    <glyph glyph-name="perthousand" unicode="&#x2030;" horiz-adv-x="1796" 
d="M1734 190q0 -99 -74 -154t-177 -55q-97 0 -168.5 56.5t-71.5 150.5q0 101 71 156t175 55q99 0 172 -56.5t73 -152.5zM1184 190q0 -99 -74 -154t-177 -55q-97 0 -168.5 56.5t-71.5 150.5q0 101 71 156t175 55q99 0 171.5 -56.5t72.5 -152.5h1zM952 718l-552 -758h-96
l551 758h97zM549 459q0 -99 -74.5 -154t-177.5 -55q-97 0 -168.5 56.5t-71.5 150.5q0 101 71 156t175 55q99 0 172.5 -56.5t73.5 -152.5zM1633 192q0 52 -42.5 84.5t-98.5 32.5q-58 0 -102.5 -33t-44.5 -87q0 -52 44 -85.5t101 -33.5t100 34t43 88zM1083 192
q0 52 -42.5 84.5t-98.5 32.5q-58 0 -102.5 -33t-44.5 -87q0 -52 44 -85.5t101 -33.5t99.5 34t42.5 88h1zM447 461q0 52 -42.5 84.5t-98.5 32.5q-58 0 -102.5 -33t-44.5 -87q0 -52 44 -85.5t101 -33.5t99.5 34t42.5 88h1z" />
    <glyph glyph-name="guilsinglleft" unicode="&#x2039;" horiz-adv-x="352" 
d="M293 67h-100l-134 196l134 193h100l-115 -193z" />
    <glyph glyph-name="guilsinglright" unicode="&#x203a;" horiz-adv-x="352" 
d="M293 263l-134 -196h-100l115 196l-115 193h100z" />
    <glyph glyph-name="fraction" unicode="&#x2044;" horiz-adv-x="310" 
d="M483 718l-551 -758h-95l550 758h96z" />
    <glyph glyph-name="Euro" unicode="&#x20ac;" horiz-adv-x="889" 
d="M849 118q-77 -74 -153.5 -105.5t-178.5 -31.5q-125 0 -222 61t-135 165h-101l14 72h70q-3 21 -3 45v22h-82l15 73h79q32 113 128.5 181.5t225.5 68.5q194 0 334 -139l-72 -67q-128 108 -266 108q-81 0 -146.5 -42t-94.5 -110h381l-14 -73h-385q-1 -7 -1 -20q0 -27 4 -47
h369l-14 -72h-328q35 -60 101 -93.5t147 -33.5q77 0 138 26.5t121 86.5z" />
    <glyph glyph-name="uni2105" unicode="&#x2105;" horiz-adv-x="1241" 
d="M1182 168q0 -80 -60.5 -132t-147.5 -52q-91 0 -148.5 52.5t-57.5 131.5q0 74 58 125t146 51q100 0 155 -51.5t55 -124.5zM931 705l-539 -758h-77l539 758h77zM440 362q-88 -54 -172 -54q-90 0 -149 48t-59 127q0 60 32.5 104t76.5 62.5t93 18.5q18 0 34.5 -2t32.5 -7
t25.5 -8t25 -12.5t19.5 -11.5t19 -13l16 -12l-40 -59q-67 55 -134 55q-58 0 -94 -34.5t-36 -77.5q0 -42 36 -75t97 -33q70 0 146 46zM1112 168q0 44 -37 75t-100 31q-61 0 -99 -31t-38 -78q0 -45 36 -78t100 -33q63 0 100.5 34t37.5 80z" />
    <glyph glyph-name="afii61289" unicode="&#x2113;" horiz-adv-x="684" 
d="M587 72q-34 -33 -86.5 -60t-116.5 -27q-76 0 -117 45q-38 41 -38 117v81q-13 -11 -38.5 -33.5t-38.5 -33.5q-7 12 -36 58q22 20 65 57t48 41v193q0 94 40 156t126 62q61 0 91.5 -36t30.5 -83q0 -66 -34.5 -125t-101.5 -123q-14 -14 -52 -56v-142q0 -100 88 -100
q61 0 126 61q26 -32 44 -52zM436 590q0 60 -43 60q-35 0 -49.5 -35t-14.5 -81v-141q31 38 42 50q65 84 65 147z" />
    <glyph glyph-name="trademark" unicode="&#x2122;" horiz-adv-x="722" 
d="M672 457h-73v164l-91 -150l-91 149v-163h-73v289h65l99 -168l101 168h63v-289zM308 680h-95v-223h-74v223h-97v66h266v-66z" />
    <glyph glyph-name="Omega" unicode="&#x2126;" horiz-adv-x="968" 
d="M926 0h-337v90q42 25 74 48.5t69 60.5t57.5 84.5t20.5 102.5q0 93 -84.5 162t-232.5 69q-133 0 -228 -63.5t-95 -170.5q0 -44 15.5 -85t37 -70t55 -58t57.5 -45t55 -35v-90h-339v90h228q-94 43 -160 121.5t-66 188.5q0 139 120.5 225.5t314.5 86.5q213 0 325.5 -90
t112.5 -219q0 -104 -69 -188.5t-168 -124.5h237v-90z" />
    <glyph glyph-name="estimated" unicode="&#x212e;" horiz-adv-x="813" 
d="M805 394h-604v-274q93 -88 214 -88q49 0 91 11t69.5 26t55.5 42t43.5 46.5t38.5 53.5q7 -4 21 -12.5t21 -12.5q-28 -45 -57 -78t-69.5 -61.5t-94 -43.5t-119.5 -15q-166 0 -274 119.5t-108 287.5q0 84 27.5 158t76.5 129.5t123 88t163 32.5q116 0 205 -57.5t134 -150
t43 -201.5zM638 437v237q-40 34 -98.5 59.5t-115.5 25.5q-137 0 -223 -86v-236h437z" />
    <glyph glyph-name="onethird" unicode="&#x2153;" horiz-adv-x="1241" 
d="M1111 108q0 -38 -25 -64.5t-65.5 -38.5t-75.5 -16.5t-69 -4.5q-131 0 -225 57l47 71q76 -43 176 -43q136 0 136 42q0 36 -57 44q-36 6 -112 6v79q21 0 57 3q86 6 86 37q0 20 -29 29t-57 9q-46 0 -79.5 -8t-84.5 -29l-42 76q62 30 101.5 39t104.5 9q29 0 59 -5.5t60 -18
t48.5 -37t18.5 -57.5q0 -45 -44 -78q71 -38 71 -101zM803 718l-551 -758h-96l550 758h97zM225 267h-95v392h95v-392z" />
    <glyph glyph-name="uni2160" unicode="&#x2160;" 
d="M248 0h-108v652h108v-652z" />
    <glyph glyph-name="uni2164" unicode="&#x2164;" horiz-adv-x="722" 
d="M715 652l-292 -652h-129l-287 652h118l234 -530l237 530h119z" />
    <glyph glyph-name="uni2169" unicode="&#x2169;" horiz-adv-x="685" 
d="M687 0h-138l-200 276l-209 -276h-139l278 356l-221 296h132l159 -215l162 215h135l-228 -296z" />
    <glyph glyph-name="partialdiff" unicode="&#x2202;" horiz-adv-x="831" 
d="M726 448q0 -99 -31 -178q-48 -133 -138.5 -208t-219.5 -75q-107 0 -175.5 62t-68.5 160q0 74 30 131.5t77.5 89.5t99.5 48t104 16q77 0 131.5 -29t78.5 -74h3q2 12 2 43q0 88 -50 150.5t-146 62.5q-81 0 -147 -44q-3 8 -9 22.5t-11 26.5t-10 23q29 21 84.5 38t120.5 17
q130 0 202.5 -81.5t72.5 -200.5zM596 306q-11 45 -53 78t-109 33q-97 0 -164 -56t-67 -147q0 -61 40 -101.5t107 -40.5q85 0 151 63.5t95 170.5z" />
    <glyph glyph-name="Delta" unicode="&#x2206;" horiz-adv-x="929" 
d="M858 0h-808v49q38 72 108 205t127 241.5t107 204.5h125q113 -217 341 -651v-49zM722 92q-92 174 -247 465q-6 11 -10 23t-6.5 23t-3.5 14h-5q-14 -43 -22 -57q-42 -78 -125 -234t-125 -234h544z" />
    <glyph glyph-name="product" unicode="&#x220f;" horiz-adv-x="1049" 
d="M935 -230h-112v835h-596v-835h-112v930h820v-930z" />
    <glyph glyph-name="summation" unicode="&#x2211;" horiz-adv-x="903" 
d="M902 -230h-892v56q196 164 492 413l-465 399v62h834v-90h-645q71 -62 211.5 -185t211.5 -184q-148 -127 -446 -381h699v-90z" />
    <glyph glyph-name="minus" unicode="&#x2212;" horiz-adv-x="889" 
d="M682 187h-475v93h475v-93z" />
    <glyph glyph-name="uni2215" unicode="&#x2215;" horiz-adv-x="310" 
d="M483 718l-551 -758h-95l550 758h96z" />
    <glyph glyph-name="uni2219" unicode="&#x2219;" horiz-adv-x="370" 
d="M255 355q0 -29 -20.5 -50.5t-49.5 -21.5t-49.5 21.5t-20.5 50.5t20.5 50.5t49.5 21.5t49.5 -21.5t20.5 -50.5z" />
    <glyph glyph-name="radical" unicode="&#x221a;" horiz-adv-x="857" 
d="M815 729q-53 -110 -112 -233.5t-131 -274.5t-111 -233h-53q-36 58 -107 174t-107 174q-66 -40 -76 -46q-8 22 -22 55q66 37 136 74q33 -55 100.5 -165t101.5 -165q50 106 150 320t150 320h81z" />
    <glyph glyph-name="infinity" unicode="&#x221e;" horiz-adv-x="1171" 
d="M1091 297q0 -89 -58.5 -147t-168.5 -58q-80 0 -150 41t-121 110h-2q-50 -67 -124 -109t-151 -42q-116 0 -172.5 57.5t-56.5 139.5q0 90 57 147.5t167 57.5q164 0 279 -151h2q49 63 118 107t149 44q109 0 170.5 -52.5t61.5 -144.5zM1006 290q0 56 -34.5 92.5t-111.5 36.5
q-123 0 -223 -126q45 -58 103.5 -91.5t123.5 -33.5q72 0 107 35.5t35 86.5zM542 292q-42 60 -104.5 93t-124.5 33q-67 0 -103.5 -35t-36.5 -92q0 -56 40.5 -90t102.5 -34q61 0 120.5 33t105.5 92z" />
    <glyph glyph-name="integral" unicode="&#x222b;" horiz-adv-x="676" 
d="M579 648q-31 17 -76 17q-54 0 -82.5 -29t-28.5 -80v-603q0 -108 -58 -155.5t-147 -47.5q-72 0 -118 22q5 14 13.5 41.5t12.5 38.5q34 -17 77 -17q52 0 81 28t29 81v603q0 104 52.5 153.5t145.5 49.5q74 0 124 -24q-4 -13 -12.5 -39t-12.5 -39z" />
    <glyph glyph-name="approxequal" unicode="&#x2248;" horiz-adv-x="889" 
d="M759 424q-41 -46 -84.5 -70t-103.5 -24q-65 0 -136 34q-72 36 -119 36q-59 0 -121 -72l-64 71q41 46 82 70t102 24q67 0 137 -34q72 -36 120 -36q61 0 122 72zM759 195q-41 -46 -84.5 -70t-103.5 -24q-65 0 -136 34q-77 36 -119 36q-60 0 -121 -73l-64 71
q40 46 81.5 70.5t102.5 24.5q62 0 137 -34q72 -36 120 -36q61 0 122 72z" />
    <glyph glyph-name="notequal" unicode="&#x2260;" horiz-adv-x="889" 
d="M732 136h-345l-75 -123h-103l75 123h-127v93h188l85 138h-273v93h333l84 136h102l-83 -136h139v-93h-200l-84 -138h284v-93z" />
    <glyph glyph-name="lessequal" unicode="&#x2264;" horiz-adv-x="889" 
d="M732 0h-575v93h575v-93zM732 142l-575 214v79l575 214v-99l-423 -153v-2l423 -153v-100z" />
    <glyph glyph-name="greaterequal" unicode="&#x2265;" horiz-adv-x="889" 
d="M732 0h-575v93h575v-93zM732 356l-575 -214v99l423 153v2l-423 154v99l575 -214v-79z" />
    <glyph glyph-name="lozenge" unicode="&#x25ca;" horiz-adv-x="843" 
d="M784 350q-55 -59 -163.5 -175.5t-163.5 -174.5h-55q-7 7 -328 349q218 234 328 351h55q55 -59 163.5 -175t163.5 -175zM685 349q-85 94 -255 280q-52 -55 -150 -161.5t-109 -118.5q129 -137 259 -280q85 94 255 280z" />
    <glyph glyph-name="A.alt" unicode="&#xe000;" horiz-adv-x="833" 
d="M813 0h-122l-107 247h-335l-76 -167q-15 -33 -24 -51.5t-26.5 -49t-33 -48t-40.5 -40t-51.5 -34t-63.5 -20t-79 -8.5h-63l5 90h48q29 0 53.5 5.5t42.5 12.5t35 23.5t27.5 28.5t25 38.5t22 42.5t23.5 51l285 629h120zM535 355l-118 261l-118 -261h236z" />
    <glyph glyph-name="Dquote" unicode="&#xe001;" horiz-adv-x="1037" 
d="M1075 654q0 -56 -48.5 -113t-70.5 -65l-12 14q19 11 56 54t37 70q0 16 -14 16h-30q-26 0 -47 18t-21 51q0 30 21 48.5t46 18.5q33 0 58 -30.5t25 -81.5zM863 379q0 -159 -104.5 -269t-263.5 -110h-345v750h345q76 0 139 -22.5t104.5 -59t70.5 -85.5t41.5 -100t12.5 -104z
M755 378q0 119 -73 191.5t-187 72.5h-237v-534h237q66 0 118 26t82 67.5t45 87t15 89.5z" />
    <glyph glyph-name="Oquote" unicode="&#xe002;" horiz-adv-x="1111" 
d="M1110 654q0 -56 -48.5 -113t-70.5 -65l-12 14q19 11 56 54t37 70q0 16 -14 16h-30q-26 0 -47 18t-21 51q0 30 21 48.5t46 18.5q33 0 58 -30.5t25 -81.5zM902 375q0 -172 -118 -281.5t-284 -109.5t-284 109.5t-118 281.5t118 281.5t284 109.5t284 -109.5t118 -281.5z
M794 375q0 118 -84 200.5t-210 82.5t-210 -82.5t-84 -200.5t84 -200.5t210 -82.5t210 82.5t84 200.5z" />
    <glyph glyph-name="ampersand.alt" unicode="&#xe003;" horiz-adv-x="870" 
d="M803 0h-147l-47 51q-103 -67 -226 -67q-50 0 -99.5 14t-92.5 39.5t-69.5 68t-26.5 94.5q0 37 14.5 68t33.5 51t49 37.5t51 26t49 17.5q-2 3 -16.5 20.5t-22.5 29t-16 30.5t-8 36q0 69 64.5 116.5t148.5 47.5q96 0 209 -58l-48 -93q-103 43 -151 43q-47 0 -81 -16.5
t-34 -35.5q0 -10 30 -40l253 -278q30 33 87 114l90 -59q-40 -67 -103 -137zM532 136l-162 179q-61 -8 -114 -43t-53 -77q0 -46 50.5 -74.5t126.5 -28.5q87 0 152 44z" />
    <glyph glyph-name="c.superior" unicode="&#xe004;" horiz-adv-x="481" 
d="M483 365q-117 -70 -245 -70q-113 0 -185.5 62.5t-72.5 163.5q0 98 75 163.5t183 65.5q131 0 245 -87l-47 -64q-108 66 -198 66q-79 0 -126 -41.5t-47 -102.5q0 -56 45.5 -98.5t127.5 -42.5q112 0 206 54z" />
    <glyph glyph-name="capostraphe" unicode="&#xe005;" horiz-adv-x="796" 
d="M162 654q0 -56 -48.5 -113t-70.5 -65l-12 14q19 11 56 54t37 70q0 16 -14 16h-30q-26 0 -47 18t-21 51q0 30 21 48.5t46 18.5q33 0 58 -30.5t25 -81.5zM732 65q-52 -38 -126.5 -59.5t-138.5 -21.5q-137 0 -227.5 72.5t-90.5 202.5q0 87 49 151.5t118 94t145 29.5
q58 0 110.5 -16.5t78 -32t62.5 -41.5q2 -2 3 -2.5t2.5 -1.5l3 -2t2.5 -2l-61 -91q-103 85 -206 85q-91 0 -147 -53t-56 -121q0 -65 55.5 -116.5t159.5 -51.5q63 0 121 22t96 51z" />
    <glyph glyph-name="nd" unicode="&#xe006;" horiz-adv-x="1093" 
d="M1040 425q0 -104 -72.5 -161t-180.5 -57h-231v445h231q103 0 178 -60.5t75 -166.5zM415 207h-78l-274 302v-302h-85v445h75l277 -306v306h85v-445zM955 425q0 68 -47 107.5t-121 39.5h-146v-285h146q70 0 119 36t49 102z" />
    <glyph glyph-name="orn.001" unicode="&#xe007;" horiz-adv-x="1296" 
d="M1234 262q0 -43 -17 -87.5t-49 -84.5t-87 -65t-123 -25q-88 0 -162 43.5t-165 126.5q-64 57 -104 89.5t-98 62t-107 29.5q-81 0 -139.5 -57t-58.5 -132q0 -56 27.5 -85t65.5 -29q33 0 52 29q-22 4 -40.5 21t-18.5 51q0 22 16.5 38t35.5 16q40 0 60 -22.5t20 -57.5
q0 -44 -37.5 -83.5t-85.5 -39.5q-42 0 -74 17t-49.5 44t-25.5 57t-8 61q0 43 17 87t49 84t87 65.5t123 25.5q52 0 95.5 -12t94 -45.5t86 -63.5t107.5 -95q73 -67 130 -101t123 -34q82 0 140 56.5t58 131.5q0 56 -27 85.5t-66 29.5q-33 0 -51 -30q21 -4 39.5 -20.5
t18.5 -50.5q0 -22 -16.5 -38.5t-35.5 -16.5q-39 0 -59.5 22.5t-20.5 57.5q0 45 37.5 84.5t86.5 39.5q80 0 118 -55t38 -124z" />
    <glyph glyph-name="orn.002" unicode="&#xe008;" horiz-adv-x="1296" 
d="M1234 179q0 -31 -8 -61t-25.5 -57t-49.5 -44t-74 -17q-48 0 -85.5 39.5t-37.5 83.5q0 35 20 57.5t60 22.5q19 0 35.5 -16t16.5 -38q0 -34 -18.5 -51t-40.5 -21q19 -29 52 -29q38 0 65.5 29t27.5 85q0 75 -58.5 132t-139.5 57q-49 0 -107 -29.5t-98 -62t-104 -89.5
q-91 -83 -165 -126.5t-162 -43.5q-68 0 -123 25t-87 65t-49 84.5t-17 87.5q0 69 38 124t118 55q49 0 86.5 -39.5t37.5 -84.5q0 -35 -20.5 -57.5t-59.5 -22.5q-19 0 -35.5 16.5t-16.5 38.5q0 34 18.5 50.5t39.5 20.5q-18 30 -51 30q-39 0 -66 -29.5t-27 -85.5
q0 -75 58 -131.5t140 -56.5q66 0 123 34t130 101q72 65 107.5 95t86 63.5t94 45.5t95.5 12q68 0 123 -25.5t87 -65.5t49 -84t17 -87z" />
    <glyph glyph-name="r.period" unicode="&#xe009;" horiz-adv-x="556" 
d="M648 370q0 -30 -20 -50t-50 -20t-50 20t-20 50t20 50t50 20t50 -20t20 -50zM473 305h-100l-120 178h-168v-178h-85v445h299q29 0 54 -6t49 -19.5t38 -41t14 -65.5q0 -32 -9.5 -56t-29 -38.5t-32.5 -20.5t-34 -14zM369 618q0 28 -22.5 40t-71.5 12h-190v-107h190
q94 0 94 55z" />
    <glyph glyph-name="rd" unicode="&#xe00a;" horiz-adv-x="1130" 
d="M1084 425q0 -104 -72.5 -161t-180.5 -57h-231v445h231q103 0 178 -60.5t75 -166.5zM483 207h-100l-120 178h-168v-178h-85v445h299q29 0 54 -6t49 -19.5t38 -41t14 -65.5q0 -32 -9.5 -56t-29 -38.5t-32.5 -20.5t-34 -14zM999 425q0 68 -47 107.5t-121 39.5h-146v-285h146
q70 0 119 36t49 102zM379 520q0 28 -22.5 40t-71.5 12h-190v-107h190q94 0 94 55z" />
    <glyph glyph-name="rs.period" unicode="&#xe00b;" horiz-adv-x="1148" 
d="M1229 370q0 -30 -20 -50t-50 -20t-50 20t-20 50t20 50t50 20t50 -20t20 -50zM1030 444q0 -63 -60.5 -103.5t-170.5 -40.5q-63 0 -113.5 12.5t-73.5 24.5t-65 38l45 72q3 -2 16.5 -10t17 -10t16.5 -9t20 -9.5l21 -7.5t25.5 -7t27.5 -4.5t34 -3.5t39 -1q65 0 100.5 17
t35.5 45q0 25 -23 35t-70 13l-134 10q-63 5 -100 35t-37 81q0 52 54.5 93t169.5 41q57 0 103.5 -12t62 -21t41.5 -27l-47 -69q-60 44 -165 44q-60 0 -97 -16t-37 -34q0 -25 43 -29l152 -12q169 -13 169 -135zM473 305h-100l-120 178h-168v-178h-85v445h299q29 0 54 -6
t49 -19.5t38 -41t14 -65.5q0 -32 -9.5 -56t-29 -38.5t-32.5 -20.5t-34 -14zM369 618q0 28 -22.5 40t-71.5 12h-190v-107h190q94 0 94 55z" />
    <glyph glyph-name="s.period" unicode="&#xe00c;" horiz-adv-x="593" 
d="M638 370q0 -30 -20 -50t-50 -20t-50 20t-20 50t20 50t50 20t50 -20t20 -50zM439 444q0 -63 -60.5 -103.5t-170.5 -40.5q-63 0 -113.5 12.5t-73.5 24.5t-65 38l45 72q3 -2 16.5 -10t17 -10t16.5 -9t20 -9.5l21 -7.5t25.5 -7t27.5 -4.5t34 -3.5t39 -1q65 0 100.5 17
t35.5 45q0 25 -23 35t-70 13l-134 10q-63 5 -100 35t-37 81q0 52 54.5 93t169.5 41q57 0 103.5 -12t62 -21t41.5 -27l-47 -69q-60 44 -165 44q-60 0 -97 -16t-37 -34q0 -25 43 -29l152 -12q169 -13 169 -135z" />
    <glyph glyph-name="sapostraphe" unicode="&#xe00d;" horiz-adv-x="796" 
d="M170 654q0 -56 -48.5 -113t-70.5 -65l-12 14q19 11 56 54t37 70q0 16 -14 16h-30q-26 0 -47 18t-21 51q0 30 21 48.5t46 18.5q33 0 58 -30.5t25 -81.5zM731 154q0 -75 -61 -122.5t-183 -47.5q-197 0 -315 90l48 93q123 -79 267 -79q31 0 60 5t54.5 22t25.5 44
q0 28 -23.5 40.5t-54.5 13.5l-155 5q-91 3 -140 48t-49 109q0 67 57.5 113t185.5 46q25 0 49 -2.5t43 -6t39 -9t33 -10t29.5 -12t23.5 -11t19 -10t14 -7.5l-47 -92q-109 56 -219 56q-50 0 -86.5 -13.5t-36.5 -44.5q0 -47 92 -50l135 -5q195 -7 195 -163z" />
    <glyph glyph-name="th" unicode="&#xe00e;" horiz-adv-x="1056" 
d="M936 207h-85v185h-269v-185h-85v445h85v-174h269v174h85v-445zM374 567h-169v-360h-85v360h-169v85h423v-85z" />
    <glyph glyph-name="s_t" unicode="&#xfb06;" horiz-adv-x="963" 
d="M928 567h-169v-360h-85v360h-169v85h423v-85zM411 346q0 -63 -60.5 -103.5t-170.5 -40.5q-63 0 -113.5 12.5t-73.5 24.5t-65 38l45 72q3 -2 16.5 -10t17 -10t16.5 -9t20 -9.5l21 -7.5t25.5 -7t27.5 -4.5t34 -3.5t39 -1q65 0 100.5 17t35.5 45q0 25 -23 35t-70 13l-134 10
q-63 5 -100 35t-37 81q0 52 54.5 93t169.5 41q57 0 103.5 -12t62 -21t41.5 -27l-47 -69q-60 44 -165 44q-60 0 -97 -16t-37 -34q0 -25 43 -29l152 -12q169 -13 169 -135z" />
  </font>
</defs>
</svg>
